<svg width="20" height="24" viewBox="0 0 20 24" fill="none" xmlns="http://www.w3.org/2000/svg">
<path d="M5.58907 6.1606C5.58907 5.77946 5.9111 5.45747 6.29224 5.45747H13.8902C14.2713 5.45747 14.5933 5.77946 14.5933 6.1606C14.5933 6.54174 14.2713 6.86372 13.8902 6.86372H6.29224C5.9111 6.86372 5.58907 6.54174 5.58907 6.1606ZM7.9045 14.445V13.8856C7.9045 13.7474 7.78779 13.6306 7.6496 13.6306C7.51141 13.6306 7.39469 13.7474 7.39469 13.8856V14.445C7.39469 14.5831 7.51141 14.6999 7.6496 14.6999C7.78779 14.6999 7.9045 14.5831 7.9045 14.445ZM6.87616 4.22457H13.3061L14.2319 1.8098C14.3261 1.56385 14.3514 1.41615 14.3568 1.33857C14.1596 1.30224 13.7364 1.34621 13.5188 1.3688C13.3188 1.38957 13.13 1.40916 12.9529 1.41165C11.9612 1.42543 11.3393 1.01424 10.8851 0.714334C10.5425 0.488021 10.351 0.370177 10.1047 0.37524L10.0905 0.375521L10.0762 0.37524C9.82961 0.368912 9.63958 0.487927 9.29753 0.714006C8.84341 1.0141 8.21979 1.4258 7.22974 1.41169C7.05236 1.40921 6.86355 1.38961 6.66363 1.36885C6.44594 1.34626 6.02285 1.30224 5.8255 1.33861C5.83094 1.41615 5.85621 1.5639 5.95052 1.8099L6.87621 4.22462L6.87616 4.22457ZM12.3493 16.7399C12.2112 16.7399 12.0944 16.8566 12.0944 16.9948V17.5542C12.0944 17.6917 12.2111 17.8078 12.3493 17.8078C12.4875 17.8078 12.6042 17.6917 12.6042 17.5542V16.9948C12.6042 16.8566 12.4875 16.7399 12.3493 16.7399ZM17.2675 11.0153C18.6115 13.0227 19.4138 15.3931 19.4138 17.3561C19.4138 19.1796 18.7653 20.6336 17.4862 21.6777C15.9031 22.9698 13.3845 23.6251 10.0005 23.6251C6.61643 23.6251 4.09741 22.9698 2.51421 21.6774C1.23504 20.6333 0.586426 19.1791 0.586426 17.3553C0.586426 15.3924 1.38864 13.0222 2.73236 11.015C4.07482 9.00985 5.44211 8.09654 6.14435 8.09654H13.855C14.5573 8.09654 15.9248 9.00994 17.2675 11.0153ZM7.6496 16.1061C8.56554 16.1061 9.31075 15.3609 9.31075 14.4449V13.8855C9.31075 12.9695 8.56558 12.2243 7.6496 12.2243C6.73361 12.2243 5.98844 12.9695 5.98844 13.8855V14.4449C5.98844 15.3609 6.73361 16.1061 7.6496 16.1061ZM12.6111 13.3428C12.8405 13.0295 12.7724 12.5895 12.4591 12.3601C12.1458 12.1308 11.7058 12.1988 11.4764 12.5122L7.38921 18.0955C7.1598 18.4089 7.22791 18.8489 7.54122 19.0782C7.66147 19.1666 7.80681 19.2141 7.95602 19.214C8.17254 19.214 8.38624 19.1143 8.52391 18.9262L12.6111 13.3428V13.3428ZM14.0105 16.9948C14.0105 16.0788 13.2653 15.3336 12.3493 15.3336C11.4333 15.3336 10.6882 16.0788 10.6882 16.9948V17.5542C10.6882 18.4694 11.4333 19.214 12.3493 19.214C13.2653 19.214 14.0105 18.4694 14.0105 17.5542V16.9948Z" fill="#3289FF"/>
</svg>
