<svg width="18" height="18" viewBox="0 0 18 18" fill="none" xmlns="http://www.w3.org/2000/svg">
<path d="M7.08268 8.41604C6.74935 8.0827 6.24935 8.0827 5.91602 8.41604C5.58268 8.74937 5.58268 9.24937 5.91602 9.5827L8.41602 12.0827C8.58268 12.2494 8.74935 12.3327 8.99935 12.3327C9.24935 12.3327 9.41602 12.2494 9.58268 12.0827L15.416 5.41604C15.666 4.99937 15.666 4.49937 15.2493 4.24937C14.916 3.99937 14.416 3.99937 14.166 4.3327L8.99935 10.2494L7.08268 8.41604Z" fill="#4591CD"/>
<path d="M16.4994 8.16602C15.9994 8.16602 15.666 8.49935 15.666 8.99935C15.666 12.666 12.666 15.666 8.99935 15.666C5.33268 15.666 2.33268 12.666 2.33268 8.99935C2.33268 7.24935 2.99935 5.58268 4.24935 4.33268C5.49935 2.99935 7.16602 2.33268 8.99935 2.33268C9.49935 2.33268 10.0827 2.41602 10.5827 2.49935C10.9993 2.66602 11.4994 2.41602 11.666 1.91602C11.8327 1.41602 11.4994 1.08268 11.0827 0.916016H10.9993C10.3327 0.749349 9.66602 0.666016 8.99935 0.666016C4.41602 0.666016 0.666016 4.41602 0.666016 9.08268C0.666016 11.2493 1.58268 13.416 3.08268 14.916C4.66602 16.4993 6.74935 17.3327 8.91602 17.3327C13.4994 17.3327 17.2494 13.5827 17.2494 8.99935C17.3327 8.49935 16.916 8.16602 16.4994 8.16602Z" fill="#4591CD"/>
</svg>
