<svg width="24" height="25" viewBox="0 0 24 25" fill="none" xmlns="http://www.w3.org/2000/svg">
<rect y="0.350098" width="24" height="24" rx="4" fill="url(#paint0_linear_5254_1483)"/>
<path d="M17 6.3501H7.4C5.8 6.3501 5 7.1501 5 8.7501V15.9501C5 17.5501 5.8 18.3501 7.4 18.3501H17C18.6 18.3501 19.4 17.5501 19.4 15.9501V8.7501C19.4 7.1501 18.6 6.3501 17 6.3501ZM16.9527 10.0349L13.0232 12.8925C12.7768 13.0717 12.488 13.1613 12.2 13.1613C11.912 13.1613 11.6224 13.0717 11.3768 12.8933L7.44727 10.0349C7.17927 9.8405 7.12003 9.4645 7.31523 9.1965C7.50963 8.9293 7.88312 8.8685 8.15352 9.0645L12.0832 11.9221C12.1536 11.9725 12.2472 11.9733 12.3176 11.9221L16.2473 9.0645C16.5169 8.8685 16.8911 8.9293 17.0855 9.1965C17.2807 9.4653 17.2207 9.8405 16.9527 10.0349Z" fill="white"/>
<defs>
<linearGradient id="paint0_linear_5254_1483" x1="12" y1="0.350098" x2="12" y2="24.3501" gradientUnits="userSpaceOnUse">
<stop stop-color="#1D72F2"/>
<stop offset="1" stop-color="#1AC4FB"/>
</linearGradient>
</defs>
</svg>
