<svg width="232" height="39" viewBox="0 0 232 39" fill="none" xmlns="http://www.w3.org/2000/svg">
<path d="M42.122 29.2162C40.9222 29.2162 39.8295 28.9805 38.844 28.5306C37.8798 28.0592 37.0228 27.4593 36.3372 26.6666C35.6302 25.8953 35.0946 25.0168 34.7089 24.0313C34.3233 23.0671 34.1519 22.0387 34.1519 21.0103C34.1519 19.939 34.3447 18.9106 34.7518 17.9465C35.1588 16.9824 35.7159 16.1039 36.4229 15.354C37.13 14.5827 37.987 13.9828 38.9725 13.5543C39.9581 13.1258 41.0294 12.8901 42.1863 12.8901C43.3861 12.8901 44.4574 13.1258 45.443 13.5757C46.4071 14.0471 47.2641 14.6684 47.9497 15.4397C48.6567 16.2325 49.1924 17.1109 49.578 18.075C49.9637 19.0392 50.1351 20.0462 50.1351 21.0532C50.1351 22.1244 49.9423 23.1528 49.5352 24.117C49.1495 25.0811 48.5925 25.9595 47.864 26.7094C47.1356 27.4807 46.2785 28.0806 45.3144 28.5306C44.3503 29.0019 43.279 29.2162 42.122 29.2162ZM37.9227 21.0746C37.9227 21.6959 38.0084 22.2958 38.2012 22.8743C38.3726 23.4528 38.6512 23.967 39.0154 24.4169C39.3796 24.8668 39.8081 25.2311 40.3438 25.5096C40.8794 25.7881 41.4793 25.9167 42.1649 25.9167C42.8719 25.9167 43.4933 25.7667 44.0289 25.4882C44.5645 25.2097 44.993 24.8454 45.3358 24.3741C45.6786 23.9027 45.9357 23.3885 46.1071 22.7886C46.2785 22.2101 46.3642 21.6102 46.3642 21.0103C46.3642 20.389 46.2785 19.7891 46.0857 19.2106C45.9143 18.6321 45.6358 18.1179 45.2716 17.668C44.9073 17.1966 44.4574 16.8538 43.9432 16.5967C43.4076 16.3396 42.8077 16.211 42.1435 16.211C41.4364 16.211 40.8151 16.3396 40.3009 16.6181C39.7867 16.8967 39.3368 17.2609 38.994 17.7108C38.6297 18.1822 38.3726 18.6964 38.2012 19.2749C38.0084 19.8748 37.9227 20.4532 37.9227 21.0746Z" fill="white"/>
<path d="M63.3546 29.1092H59.7337V22.553C59.7337 21.7817 59.5838 21.2247 59.2838 20.8819C58.9838 20.5391 58.5982 20.3677 58.1268 20.3677C57.784 20.3677 57.4627 20.4534 57.0984 20.6248C56.7556 20.7962 56.4342 21.0318 56.1557 21.3532C55.8772 21.6532 55.6629 22.0174 55.513 22.4031V29.1306H51.8921V17.3467H55.1487V19.3607C55.4487 18.8893 55.8343 18.5037 56.2843 18.1823C56.7342 17.8609 57.2484 17.6038 57.8483 17.4324C58.4482 17.261 59.0695 17.1753 59.7766 17.1753C60.5479 17.1753 61.1692 17.3038 61.6406 17.5824C62.1119 17.8609 62.4762 18.2251 62.7333 18.6751C62.9904 19.125 63.1403 19.5963 63.226 20.1106C63.3117 20.6248 63.3546 21.1175 63.3546 21.6103V29.1092Z" fill="white"/>
<path d="M65.7114 12.5688H69.3322V24.8884C69.3322 25.3811 69.4179 25.7454 69.6108 25.9596C69.7822 26.1739 70.0393 26.281 70.3821 26.281C70.6177 26.281 70.832 26.2382 71.0677 26.1739C71.3034 26.1096 71.5176 26.0239 71.689 25.9382L72.1604 28.6592C71.7104 28.8735 71.1962 29.0449 70.5963 29.152C69.9964 29.2805 69.4608 29.3234 68.9466 29.3234C67.9182 29.3234 67.1254 29.0449 66.547 28.4878C65.9899 27.9307 65.6899 27.1594 65.6899 26.131V12.5688H65.7114Z" fill="white"/>
<path d="M73.3599 15.8469V12.5688H76.9807V15.8469H73.3599ZM73.3599 29.1091V17.2181H76.9807V29.1091H73.3599Z" fill="white"/>
<path d="M90.9503 29.1092H87.3294V22.553C87.3294 21.7817 87.1795 21.2247 86.8795 20.8819C86.5795 20.5391 86.1939 20.3677 85.7225 20.3677C85.3797 20.3677 85.0584 20.4534 84.6941 20.6248C84.3513 20.7962 84.0299 21.0318 83.7514 21.3532C83.4729 21.6532 83.2586 22.0174 83.1087 22.4031V29.1306H79.4878V17.3467H82.7444V19.3607C83.0444 18.8893 83.43 18.5037 83.88 18.1823C84.3299 17.8609 84.8441 17.6038 85.444 17.4324C86.0439 17.261 86.6652 17.1753 87.3723 17.1753C88.1436 17.1753 88.7649 17.3038 89.2363 17.5824C89.7076 17.8609 90.0719 18.2251 90.329 18.6751C90.5861 19.125 90.736 19.5963 90.8217 20.1106C90.9074 20.6248 90.9503 21.1175 90.9503 21.6103V29.1092Z" fill="white"/>
<path d="M99.0277 29.3449C98.0207 29.3449 97.1209 29.1735 96.3282 28.8735C95.5354 28.5522 94.8712 28.1237 94.3142 27.5666C93.7571 27.0095 93.35 26.3668 93.0501 25.6597C92.7716 24.9313 92.6216 24.1814 92.6216 23.3887C92.6216 22.2531 92.8787 21.2247 93.3715 20.3034C93.8857 19.3822 94.6141 18.6323 95.5568 18.0538C96.4996 17.4753 97.6565 17.1968 99.0063 17.1968C100.356 17.1968 101.492 17.4753 102.434 18.0538C103.377 18.6108 104.106 19.3607 104.598 20.282C105.091 21.2033 105.348 22.1889 105.348 23.2601C105.348 23.4744 105.327 23.6672 105.305 23.8815C105.284 24.0743 105.262 24.2671 105.241 24.3957H96.4567C96.4996 24.9099 96.6495 25.3384 96.9066 25.7026C97.1637 26.0454 97.4851 26.3239 97.8708 26.5168C98.2564 26.7096 98.6849 26.7953 99.1134 26.7953C99.6491 26.7953 100.163 26.6667 100.635 26.4096C101.106 26.1525 101.449 25.8097 101.62 25.3598L104.705 26.2168C104.405 26.8381 103.977 27.3738 103.42 27.8666C102.863 28.3379 102.22 28.7236 101.47 28.9807C100.763 29.1949 99.949 29.3449 99.0277 29.3449ZM96.4139 22.1246H101.577C101.513 21.6532 101.363 21.2247 101.149 20.8819C100.913 20.5391 100.613 20.2606 100.249 20.0678C99.8633 19.8749 99.4562 19.7678 99.0063 19.7678C98.535 19.7678 98.1279 19.8749 97.7422 20.0678C97.378 20.2606 97.078 20.5391 96.8424 20.8819C96.6067 21.2461 96.4567 21.6532 96.4139 22.1246Z" fill="white"/>
<path d="M107.19 29.1092V13.0188H110.897V25.8525H118.696V29.1092H107.19Z" fill="white"/>
<path d="M125.788 29.3448C124.781 29.3448 123.881 29.1734 123.088 28.852C122.295 28.5306 121.631 28.0807 121.074 27.5022C120.538 26.9451 120.11 26.281 119.831 25.5525C119.553 24.824 119.403 24.0527 119.403 23.26C119.403 22.4458 119.553 21.6745 119.831 20.9461C120.11 20.2176 120.517 19.5749 121.074 18.9964C121.61 18.4393 122.295 17.9894 123.088 17.6466C123.881 17.3252 124.781 17.1538 125.788 17.1538C126.795 17.1538 127.694 17.3252 128.487 17.6466C129.28 17.968 129.944 18.4179 130.48 18.9964C131.015 19.5534 131.444 20.2176 131.722 20.9461C132.001 21.6745 132.151 22.4458 132.151 23.26C132.151 24.0742 132.001 24.824 131.722 25.5525C131.444 26.281 131.015 26.9237 130.48 27.5022C129.944 28.0593 129.28 28.5092 128.487 28.852C127.694 29.1734 126.795 29.3448 125.788 29.3448ZM123.131 23.26C123.131 23.8599 123.238 24.3955 123.474 24.8455C123.709 25.2954 124.031 25.6596 124.416 25.8953C124.802 26.1524 125.252 26.2595 125.766 26.2595C126.259 26.2595 126.709 26.131 127.116 25.8739C127.523 25.6168 127.823 25.2526 128.059 24.8026C128.294 24.3527 128.401 23.8171 128.401 23.2386C128.401 22.6387 128.294 22.103 128.059 21.6531C127.823 21.2032 127.523 20.839 127.116 20.6033C126.709 20.3462 126.259 20.239 125.766 20.239C125.252 20.239 124.802 20.3676 124.416 20.6033C124.031 20.8604 123.709 21.2032 123.474 21.6531C123.238 22.1245 123.131 22.6601 123.131 23.26Z" fill="white"/>
<path d="M133.179 25.6168C133.179 24.8455 133.393 24.1599 133.843 23.5814C134.272 23.0029 134.893 22.553 135.665 22.2102C136.436 21.8674 137.314 21.7174 138.321 21.7174C138.814 21.7174 139.285 21.7602 139.757 21.8459C140.228 21.9316 140.635 22.0388 140.978 22.1887V21.6745C140.978 21.0532 140.785 20.5604 140.378 20.2176C139.992 19.8748 139.393 19.7034 138.578 19.7034C137.914 19.7034 137.293 19.8105 136.714 20.0462C136.136 20.2819 135.515 20.6033 134.872 21.0104L133.779 18.6964C134.572 18.1822 135.386 17.7966 136.243 17.5395C137.1 17.2824 138 17.1538 138.943 17.1538C140.721 17.1538 142.114 17.5823 143.099 18.4179C144.085 19.2535 144.577 20.4747 144.577 22.0602V25.1026C144.577 25.4668 144.642 25.7025 144.749 25.8525C144.856 26.0024 145.07 26.0881 145.349 26.1096V29.1305C145.049 29.1948 144.77 29.2376 144.492 29.2591C144.235 29.2805 143.999 29.3019 143.806 29.3019C143.121 29.3019 142.606 29.1734 142.264 28.8948C141.899 28.6163 141.685 28.2521 141.599 27.7807L141.535 27.2665C140.999 27.9521 140.378 28.4663 139.65 28.8091C138.921 29.1734 138.15 29.3448 137.357 29.3448C136.564 29.3448 135.857 29.1734 135.236 28.852C134.615 28.5306 134.122 28.0807 133.758 27.5022C133.372 26.9451 133.179 26.3024 133.179 25.6168ZM140.4 26.0239C140.571 25.8953 140.699 25.7453 140.807 25.5954C140.914 25.4454 140.957 25.274 140.957 25.1454V24.117C140.657 24.0099 140.314 23.9028 139.95 23.8385C139.585 23.7742 139.243 23.7314 138.921 23.7314C138.257 23.7314 137.7 23.8813 137.271 24.1599C136.843 24.4384 136.607 24.824 136.607 25.274C136.607 25.5311 136.693 25.7668 136.843 26.0024C136.993 26.2167 137.207 26.3881 137.464 26.5166C137.721 26.6452 138.043 26.7095 138.407 26.7095C138.771 26.7095 139.135 26.6452 139.5 26.5166C139.842 26.4095 140.164 26.2381 140.4 26.0239Z" fill="white"/>
<path d="M158.675 29.1092H155.055V22.553C155.055 21.7817 154.905 21.2247 154.605 20.8819C154.305 20.5391 153.919 20.3677 153.448 20.3677C153.105 20.3677 152.783 20.4534 152.419 20.6248C152.076 20.7962 151.755 21.0318 151.477 21.3532C151.198 21.6532 150.984 22.0174 150.834 22.4031V29.1306H147.213V17.3467H150.47V19.3607C150.769 18.8893 151.155 18.5037 151.605 18.1823C152.055 17.8609 152.569 17.6038 153.169 17.4324C153.769 17.261 154.39 17.1753 155.097 17.1753C155.869 17.1753 156.49 17.3038 156.961 17.5824C157.433 17.8609 157.797 18.2251 158.054 18.6751C158.311 19.125 158.461 19.5963 158.547 20.1106C158.633 20.6248 158.675 21.1175 158.675 21.6103V29.1092Z" fill="white"/>
<path d="M161.161 29.1092V25.8525H163.646V29.1092H161.161Z" fill="white"/>
<path d="M165.467 20.9246C165.467 19.939 165.639 18.9749 166.003 18.0322C166.367 17.0895 166.881 16.2325 167.546 15.4397C168.231 14.6684 169.067 14.0471 170.031 13.5757C171.016 13.1044 172.131 12.8901 173.395 12.8901C174.873 12.8901 176.158 13.2115 177.23 13.8543C178.301 14.497 179.115 15.354 179.651 16.3825L177.251 18.0322C176.973 17.4323 176.63 16.9395 176.18 16.5967C175.751 16.2325 175.28 15.9968 174.766 15.8468C174.273 15.6968 173.78 15.6326 173.287 15.6326C172.495 15.6326 171.809 15.7825 171.231 16.1039C170.652 16.4253 170.159 16.8324 169.774 17.3466C169.388 17.8608 169.088 18.4393 168.895 19.0606C168.702 19.7034 168.617 20.3247 168.617 20.9675C168.617 21.6745 168.724 22.3601 168.96 23.0243C169.195 23.6885 169.517 24.2669 169.924 24.7597C170.331 25.2739 170.845 25.6596 171.424 25.9595C172.002 26.2595 172.645 26.4095 173.33 26.4095C173.823 26.4095 174.337 26.3238 174.852 26.1524C175.366 25.981 175.837 25.7239 176.287 25.3596C176.716 24.9954 177.058 24.524 177.315 23.9456L179.886 25.4239C179.565 26.2166 179.051 26.9022 178.344 27.4593C177.615 28.0164 176.823 28.4449 175.923 28.7234C175.023 29.0019 174.145 29.1519 173.266 29.1519C172.109 29.1519 171.059 28.9162 170.117 28.4449C169.174 27.9735 168.338 27.3308 167.653 26.538C166.967 25.7453 166.431 24.8454 166.046 23.8599C165.66 22.9386 165.467 21.9316 165.467 20.9246Z" fill="white"/>
<path d="M188.756 19.8534C187.835 19.8534 187.021 20.0248 186.292 20.389C185.564 20.7533 185.05 21.246 184.728 21.9102V29.0877H181.686V17.3466H184.471V19.7677C184.9 18.9535 185.435 18.3108 186.078 17.8394C186.721 17.3681 187.407 17.111 188.135 17.0681C188.306 17.0681 188.435 17.0681 188.521 17.0681C188.606 17.0681 188.692 17.0681 188.756 17.0895V19.8534Z" fill="white"/>
<path d="M195.805 29.3449C194.863 29.3449 193.984 29.1735 193.213 28.8735C192.442 28.5522 191.777 28.1022 191.242 27.5452C190.706 26.9881 190.278 26.3454 189.978 25.6169C189.678 24.8884 189.528 24.1171 189.528 23.3244C189.528 22.2103 189.785 21.1819 190.278 20.2606C190.792 19.3393 191.499 18.5894 192.463 18.0324C193.406 17.4753 194.52 17.1968 195.805 17.1968C197.112 17.1968 198.205 17.4753 199.148 18.0324C200.069 18.5894 200.776 19.3393 201.269 20.2606C201.762 21.1819 201.997 22.1674 201.997 23.2387C201.997 23.4101 201.997 23.6029 201.976 23.7958C201.954 23.9886 201.954 24.1386 201.933 24.2457H192.763C192.827 24.8456 192.999 25.3598 193.299 25.7883C193.599 26.2382 193.963 26.5596 194.434 26.7953C194.906 27.031 195.398 27.1381 195.913 27.1381C196.512 27.1381 197.091 26.9881 197.627 26.6882C198.162 26.3882 198.526 26.0026 198.719 25.5312L201.333 26.2597C201.055 26.8596 200.626 27.3952 200.09 27.8666C199.555 28.3379 198.934 28.7021 198.205 28.9592C197.477 29.1949 196.684 29.3449 195.805 29.3449ZM192.699 22.296H198.912C198.848 21.6961 198.676 21.1819 198.398 20.7534C198.119 20.3249 197.755 19.9821 197.305 19.725C196.855 19.4893 196.341 19.3607 195.784 19.3607C195.248 19.3607 194.756 19.4893 194.306 19.725C193.856 19.9606 193.492 20.3034 193.213 20.7534C192.934 21.1819 192.763 21.6961 192.699 22.296Z" fill="white"/>
<path d="M203.154 23.2386C203.154 22.1031 203.39 21.0747 203.84 20.1534C204.29 19.2321 204.911 18.5036 205.725 17.968C206.518 17.4324 207.439 17.1539 208.468 17.1539C209.346 17.1539 210.139 17.3681 210.846 17.7966C211.553 18.2251 212.089 18.7822 212.496 19.4464V12.5688H215.538V25.7025C215.538 26.0239 215.581 26.2382 215.688 26.3881C215.795 26.5167 215.967 26.6024 216.224 26.6452V29.1091C215.688 29.2163 215.26 29.2591 214.938 29.2591C214.403 29.2591 213.953 29.1306 213.588 28.852C213.224 28.5735 213.031 28.2307 212.988 27.7808L212.946 27.0309C212.517 27.7808 211.917 28.3378 211.167 28.7235C210.417 29.1091 209.646 29.3234 208.832 29.3234C208.018 29.3234 207.268 29.1734 206.582 28.852C205.897 28.5307 205.297 28.1022 204.783 27.5451C204.268 26.988 203.883 26.3453 203.604 25.6168C203.283 24.8884 203.154 24.0956 203.154 23.2386ZM212.474 24.8027V22.0174C212.324 21.5889 212.089 21.2032 211.746 20.8604C211.403 20.5176 211.039 20.2391 210.632 20.0463C210.225 19.8534 209.818 19.7463 209.41 19.7463C208.939 19.7463 208.511 19.832 208.146 20.0248C207.761 20.2177 207.439 20.4748 207.161 20.7961C206.882 21.1175 206.668 21.5032 206.518 21.9317C206.368 22.3602 206.304 22.8101 206.304 23.2815C206.304 23.7528 206.39 24.2028 206.539 24.6313C206.689 25.0598 206.925 25.424 207.225 25.724C207.525 26.0453 207.868 26.281 208.275 26.4524C208.682 26.6238 209.111 26.7095 209.582 26.7095C209.86 26.7095 210.16 26.6667 210.46 26.5595C210.76 26.4738 211.039 26.3239 211.296 26.1525C211.553 25.9811 211.789 25.7668 212.003 25.5311C212.217 25.3383 212.367 25.0812 212.474 24.8027Z" fill="white"/>
<path d="M218.495 15.5898V12.5688H221.537V15.5898H218.495ZM218.495 29.1091V17.2396H221.537V29.1091H218.495Z" fill="white"/>
<path d="M231.393 28.5308C231.135 28.6379 230.835 28.7664 230.471 28.895C230.107 29.0235 229.721 29.1307 229.314 29.2164C228.907 29.3021 228.479 29.3449 228.05 29.3449C227.493 29.3449 226.979 29.2378 226.508 29.045C226.036 28.8521 225.672 28.5308 225.393 28.1023C225.115 27.6737 224.965 27.1167 224.965 26.4311V19.6821H223.401V17.3468H224.965V13.4902H228.007V17.3468H230.493V19.6821H228.007V25.4027C228.029 25.8098 228.136 26.0883 228.35 26.2811C228.564 26.4525 228.821 26.5596 229.143 26.5596C229.464 26.5596 229.764 26.5168 230.064 26.4097C230.364 26.3025 230.6 26.2168 230.793 26.1311L231.393 28.5308Z" fill="white"/>
<path d="M29.1598 17.5182C28.4527 15.6756 27.4243 14.0044 26.0959 12.5261C24.7676 11.0477 23.1821 9.86934 21.3395 8.99091C21.1896 8.92663 21.061 8.86236 20.911 8.79808C20.9753 8.75523 21.0396 8.73381 21.0824 8.71238C21.8109 8.32673 22.5608 7.9625 23.1607 7.38402C23.9748 6.61271 24.1034 5.60572 23.5463 4.72728C23.2464 4.27736 22.8607 3.93455 22.368 3.69887C22.0894 3.57032 21.8109 3.48462 21.5324 3.35607C21.5324 3.27037 21.5538 3.18467 21.5538 3.12039C21.768 1.87773 21.2324 0.892167 20.0326 0.442237C18.6828 -0.0505438 17.4187 0.185134 16.2618 1.02072C15.6833 1.44922 15.1262 1.89915 14.5263 2.32766C14.3549 2.45621 14.1407 2.52049 13.9264 2.58476C13.3908 2.75616 12.8551 2.88471 12.3409 3.07754C11.741 3.31322 11.2483 3.67745 10.9911 4.29878C10.9054 4.51303 10.8626 4.74871 10.7983 4.98439C10.6269 5.00581 10.4555 5.02724 10.2841 5.07009C9.57708 5.26292 9.04145 5.60572 8.89148 6.39845C8.76293 7.12691 8.97718 7.7054 9.55566 8.11247C9.74849 8.24103 9.96274 8.36958 10.177 8.4767C9.81276 8.60526 9.44853 8.75523 9.0843 8.90521C7.22031 9.74079 5.61341 10.8763 4.26362 12.3118C2.95668 13.7687 1.88542 15.4185 1.13554 17.2396C0.385654 19.0608 0 20.989 0 23.0244C0 24.9956 0.364229 26.9024 1.07126 28.745C1.7783 30.5876 2.80671 32.2373 4.13507 33.7156C5.46344 35.194 7.04891 36.3509 8.89148 37.2294C10.734 38.1078 12.7909 38.5363 15.0834 38.5363C17.2902 38.5363 19.3041 38.1078 21.1467 37.2722C22.9893 36.4366 24.5962 35.2797 25.9674 33.8442C27.3386 32.4087 28.3884 30.759 29.1383 28.9378C29.8882 27.1167 30.2524 25.1884 30.2524 23.153C30.231 21.2247 29.8668 19.3607 29.1598 17.5182ZM27.0172 26.1954C26.9315 27.5666 26.5459 28.8521 25.5389 29.8591C24.6819 30.7375 23.6106 31.0803 22.3251 31.1232C23.7177 29.7948 24.6605 28.2951 25.1532 26.4525C24.8961 26.9024 24.7033 27.3095 24.4462 27.6951C22.6465 30.4376 20.1612 31.8302 17.1188 32.023C16.6903 32.0445 16.2403 32.0659 15.7904 32.0445C13.4765 31.9588 11.3768 31.166 9.51281 29.8377C9.44853 29.7948 9.38426 29.7305 9.29856 29.6877C9.25571 29.6448 9.19143 29.6234 9.12715 29.602C9.61993 30.4376 10.327 31.1018 11.1411 31.6802C10.7769 31.7231 10.3912 31.7659 10.027 31.7874C6.32045 32.0016 3.36376 29.302 3.21379 25.5955C3.14951 24.0743 3.49231 22.6602 4.1565 21.3104C5.67769 18.1823 7.79879 15.5256 10.6483 13.4902C11.3982 12.9546 12.191 12.5261 13.0694 12.2261C13.2837 12.1618 13.4979 12.119 13.7122 12.0976C13.9264 12.0761 14.0121 12.2047 13.9264 12.4189C13.8407 12.5904 13.7336 12.7618 13.6265 12.9117C13.2408 13.4045 12.8551 13.8759 12.4695 14.3686C12.4266 14.4329 12.3838 14.4758 12.3409 14.54C12.4695 14.4543 12.598 14.3686 12.7266 14.3044C13.4336 13.833 14.055 13.2545 14.612 12.6118C14.7834 12.4189 14.9977 12.2475 15.2119 12.1618C15.769 11.9262 16.3046 12.1404 16.5617 12.6761C16.8831 13.3188 17.3116 13.8973 17.783 14.4329C18.1686 14.84 18.5757 15.2471 19.0256 15.6113C18.9828 15.547 18.9613 15.5042 18.9185 15.4399C18.7685 15.2042 18.6185 14.9686 18.4686 14.7114C18.0829 14.0901 17.6973 13.4902 17.333 12.8689C17.2259 12.6975 17.2687 12.4404 17.2473 12.2261C17.4616 12.269 17.7187 12.2261 17.8901 12.3332C18.5328 12.7403 19.1542 13.1688 19.7541 13.6402C21.8109 15.2685 23.6749 17.1111 25.1318 19.3179C26.5673 21.3533 27.1886 23.6886 27.0172 26.1954ZM15.469 9.89077C16.3689 9.89077 17.2687 9.97647 18.1043 10.3621C18.3829 10.4907 18.64 10.6835 18.8542 10.8763C19.1327 11.1334 19.1756 11.4762 19.0256 11.8619C16.626 10.3621 14.2264 10.8549 11.8696 11.9262C11.4197 11.3905 11.5268 10.8978 12.1481 10.5978C13.198 10.0836 14.3121 9.89077 15.469 9.89077ZM12.9623 9.01233C13.6479 8.79808 14.2906 8.90521 14.9334 9.24801C14.5477 9.31229 14.1621 9.35514 13.7764 9.41941C13.3908 9.48369 12.9837 9.59082 12.5766 9.69794C12.5123 9.33371 12.6195 9.11946 12.9623 9.01233ZM21.2967 4.17023C21.7252 4.25593 22.1966 4.40591 22.5822 4.72728C23.2678 5.28434 23.3321 6.16278 22.6679 6.74126C22.218 7.12691 21.6823 7.44829 21.1681 7.74825C20.7611 7.98392 20.3326 8.19818 19.9041 8.41243C19.6684 8.51955 19.4541 8.64811 19.2184 8.75523C18.9185 8.90521 18.7042 8.77666 18.7471 8.45528C18.7685 8.34815 18.7899 8.2196 18.8328 8.11247C18.8756 8.00535 18.9185 7.91965 18.9828 7.81252C19.7326 6.61271 20.504 5.41289 21.2967 4.17023ZM11.9553 6.14135C11.4197 4.94154 11.741 4.25593 12.9623 3.806C13.3694 3.65602 13.7979 3.57032 14.2049 3.44177C14.462 3.35607 14.7191 3.27037 14.9334 3.12039C15.5547 2.64904 16.1332 2.15626 16.7331 1.6849C17.5259 1.08499 18.3829 0.827891 19.3898 1.04214C20.6111 1.29925 21.1896 2.19911 20.7182 3.3775C20.3754 4.19165 19.9255 4.98439 19.4755 5.7557C19.047 6.50558 18.5757 7.23404 18.1258 7.98392C18.0401 8.1339 17.9329 8.28388 17.8472 8.43385C17.7615 8.5624 17.6758 8.66953 17.5901 8.77666C16.8831 9.56939 15.6833 9.33371 15.319 8.34815C15.2333 8.1339 15.1691 7.91965 15.1048 7.70539C15.0405 7.46972 14.9762 7.25546 14.912 7.01979C14.8048 6.56986 14.6977 6.11993 14.612 5.67C14.6549 6.3556 14.612 7.01979 14.6549 7.70539C14.6549 7.81252 14.6763 7.94107 14.6763 8.0482C14.6549 8.36958 14.5049 8.49813 14.2049 8.49813C13.905 8.49813 13.605 8.4767 13.3051 8.43385C13.2408 8.43385 13.1765 8.36958 13.1337 8.3053C13.048 8.15532 12.9623 8.00535 12.8766 7.85537C12.5338 7.29832 12.2124 6.74126 11.9553 6.14135Z" fill="#3289FF"/>
<path d="M17.8043 22.0604C17.3115 21.8033 16.733 21.589 16.0688 21.4176C15.9188 21.3748 15.7689 21.3319 15.6189 21.2891V19.2965C15.7903 19.318 15.9403 19.3608 16.1117 19.4037C16.433 19.4894 16.7116 19.5965 16.9901 19.7036C17.2472 19.8322 17.4829 19.9393 17.6543 20.025C17.8257 20.1321 17.9328 20.1964 17.9542 20.2607L19.0255 18.2467C18.7255 18.0753 18.3613 17.9039 17.9542 17.7111C17.5472 17.5397 17.1187 17.3897 16.6687 17.2611C16.3902 17.1754 16.0902 17.1326 15.7903 17.1112V15.6328H14.719V17.1326C14.2262 17.1754 13.7549 17.304 13.3264 17.4968C12.7265 17.7539 12.2551 18.1396 11.9123 18.6538C11.5695 19.168 11.3981 19.7893 11.3981 20.5178C11.3981 21.0534 11.5052 21.5033 11.6981 21.8461C11.8909 22.2104 12.2123 22.4889 12.6194 22.746C13.0479 22.9817 13.5621 23.2173 14.2048 23.4102C14.4405 23.4745 14.6762 23.5602 14.8904 23.6244V25.5741C14.6762 25.5527 14.4619 25.5099 14.2477 25.4456C13.862 25.3384 13.4978 25.2099 13.1764 25.0599C12.855 24.9099 12.5979 24.7814 12.3837 24.6528C12.1694 24.5243 12.0409 24.4386 11.998 24.3743L10.9268 26.4954C11.3338 26.7739 11.7838 27.0096 12.2765 27.2024C12.7693 27.3953 13.2835 27.5452 13.8192 27.6524C14.1191 27.7167 14.3976 27.7595 14.6976 27.7809V29.5164H15.7689V27.8024C16.1331 27.7809 16.4973 27.7381 16.8401 27.6524C17.3115 27.5452 17.74 27.3524 18.1042 27.1167C18.4684 26.8596 18.7684 26.5383 18.9826 26.1312C19.1969 25.7241 19.304 25.2313 19.304 24.6314C19.304 23.9887 19.1755 23.453 18.9184 23.0674C18.6613 22.6389 18.297 22.2961 17.8043 22.0604ZM14.869 21.0534C14.5262 20.9463 14.2905 20.8177 14.1191 20.6892C13.9477 20.5606 13.862 20.3678 13.862 20.1321C13.862 19.8322 13.9691 19.6179 14.1834 19.4679C14.3548 19.3608 14.569 19.2965 14.8476 19.2751V21.0534H14.869ZM16.4116 25.4027C16.2402 25.5313 15.9617 25.5956 15.6189 25.5956V23.8387C15.9403 23.9458 16.1974 24.0744 16.3902 24.2029C16.6044 24.3529 16.7116 24.5671 16.7116 24.8242C16.7116 25.0599 16.6259 25.2527 16.4116 25.4027Z" fill="#3289FF"/>
</svg>
