<svg width="239" height="40" viewBox="0 0 239 40" fill="none" xmlns="http://www.w3.org/2000/svg">
<path d="M43.3537 30.1659C42.1188 30.1659 40.9941 29.9233 39.9797 29.4602C38.9874 28.9751 38.1053 28.3576 37.3997 27.5417C36.672 26.7479 36.1207 25.8437 35.7237 24.8293C35.3268 23.837 35.1504 22.7785 35.1504 21.72C35.1504 20.6175 35.3489 19.559 35.7678 18.5666C36.1868 17.5743 36.7602 16.6702 37.4879 15.8984C38.2156 15.1045 39.0977 14.4871 40.112 14.046C41.1264 13.605 42.229 13.3624 43.4198 13.3624C44.6547 13.3624 45.7573 13.605 46.7717 14.0681C47.764 14.5532 48.6461 15.1927 49.3517 15.9866C50.0794 16.8025 50.6307 17.7066 51.0277 18.699C51.4246 19.6913 51.601 20.7277 51.601 21.7642C51.601 22.8667 51.4025 23.9252 50.9836 24.9176C50.5866 25.9099 50.0133 26.814 49.2635 27.5858C48.5138 28.3797 47.6317 28.9971 46.6394 29.4602C45.647 29.9233 44.5444 30.1659 43.3537 30.1659ZM39.0315 21.7642C39.0315 22.4037 39.1197 23.0211 39.3182 23.6165C39.4946 24.2119 39.7813 24.7411 40.1561 25.2042C40.531 25.6673 40.9721 26.0422 41.5234 26.3289C42.0746 26.6155 42.6921 26.7479 43.3978 26.7479C44.1255 26.7479 44.765 26.5935 45.3163 26.3068C45.8676 26.0201 46.3086 25.6453 46.6614 25.1601C47.0142 24.675 47.2789 24.1457 47.4553 23.5283C47.6317 22.9329 47.7199 22.3154 47.7199 21.698C47.7199 21.0585 47.6317 20.441 47.4332 19.8456C47.2568 19.2503 46.9701 18.721 46.5953 18.2579C46.2204 17.7728 45.7573 17.42 45.2281 17.1553C44.6768 16.8907 44.0593 16.7584 43.3757 16.7584C42.648 16.7584 42.0085 16.8907 41.4793 17.1774C40.95 17.4641 40.4869 17.8389 40.1341 18.302C39.7592 18.7872 39.4946 19.3164 39.3182 19.9118C39.1197 20.5293 39.0315 21.1467 39.0315 21.7642Z" fill="#142657"/>
<path d="M65.2069 30.0336H61.4801V23.2857C61.4801 22.4919 61.3258 21.9185 61.017 21.5657C60.7083 21.2129 60.3114 21.0364 59.8262 21.0364C59.4734 21.0364 59.1426 21.1247 58.7678 21.3011C58.4149 21.4775 58.0842 21.7201 57.7975 22.0508C57.5108 22.3596 57.2903 22.7344 57.1359 23.1314V30.0556H53.4092V17.9271H56.761V20C57.0698 19.5149 57.4667 19.1179 57.9298 18.7872C58.3929 18.4564 58.9221 18.1918 59.5396 18.0154C60.157 17.8389 60.7965 17.7507 61.5242 17.7507C62.3181 17.7507 62.9576 17.883 63.4427 18.1697C63.9279 18.4564 64.3028 18.8313 64.5674 19.2944C64.832 19.7574 64.9864 20.2426 65.0746 20.7718C65.1628 21.3011 65.2069 21.8083 65.2069 22.3155V30.0336Z" fill="#142657"/>
<path d="M67.6329 13.0096H71.3596V25.6894C71.3596 26.1966 71.4478 26.5715 71.6463 26.792C71.8227 27.0125 72.0873 27.1228 72.4402 27.1228C72.6827 27.1228 72.9033 27.0787 73.1458 27.0125C73.3884 26.9464 73.6089 26.8582 73.7853 26.77L74.2705 29.5705C73.8074 29.791 73.2781 29.9675 72.6607 30.0777C72.0432 30.21 71.4919 30.2541 70.9627 30.2541C69.9042 30.2541 69.0883 29.9675 68.4929 29.3941C67.9196 28.8208 67.6108 28.0269 67.6108 26.9684V13.0096H67.6329Z" fill="#142657"/>
<path d="M75.5054 16.4056V13.0096H79.2321V16.4056H75.5054ZM75.5054 30.0336V17.7949H79.2321V30.0336H75.5054Z" fill="#142657"/>
<path d="M93.6097 30.0336H89.883V23.2857C89.883 22.4919 89.7286 21.9185 89.4199 21.5657C89.1111 21.2129 88.7142 21.0364 88.2291 21.0364C87.8763 21.0364 87.5455 21.1247 87.1706 21.3011C86.8178 21.4775 86.487 21.7201 86.2003 22.0508C85.9136 22.3596 85.6931 22.7344 85.5388 23.1314V30.0556H81.812V17.9271H85.1639V20C85.4726 19.5149 85.8695 19.1179 86.3326 18.7872C86.7957 18.4564 87.325 18.1918 87.9424 18.0154C88.5599 17.8389 89.1994 17.7507 89.9271 17.7507C90.7209 17.7507 91.3604 17.883 91.8456 18.1697C92.3307 18.4564 92.7056 18.8313 92.9702 19.2944C93.2348 19.7574 93.3892 20.2426 93.4774 20.7718C93.5656 21.3011 93.6097 21.8083 93.6097 22.3155V30.0336Z" fill="#142657"/>
<path d="M101.923 30.2762C100.887 30.2762 99.9605 30.0998 99.1446 29.791C98.3286 29.4603 97.645 29.0192 97.0717 28.4459C96.4983 27.8725 96.0794 27.211 95.7706 26.4833C95.484 25.7335 95.3296 24.9617 95.3296 24.1458C95.3296 22.977 95.5942 21.9186 96.1014 20.9703C96.6306 20.0221 97.3804 19.2503 98.3507 18.6549C99.321 18.0595 100.512 17.7728 101.901 17.7728C103.29 17.7728 104.459 18.0595 105.429 18.6549C106.4 19.2282 107.149 20.0001 107.657 20.9483C108.164 21.8965 108.428 22.9109 108.428 24.0135C108.428 24.234 108.406 24.4325 108.384 24.653C108.362 24.8514 108.34 25.0499 108.318 25.1822H99.2769C99.321 25.7115 99.4753 26.1525 99.7399 26.5274C100.005 26.8802 100.335 27.1669 100.732 27.3653C101.129 27.5638 101.57 27.652 102.011 27.652C102.563 27.652 103.092 27.5197 103.577 27.2551C104.062 26.9905 104.415 26.6376 104.591 26.1746L107.767 27.0566C107.458 27.6961 107.017 28.2474 106.444 28.7546C105.87 29.2397 105.209 29.6367 104.437 29.9013C103.709 30.1439 102.871 30.2762 101.923 30.2762ZM99.2328 22.8668H104.547C104.481 22.3816 104.327 21.9406 104.106 21.5878C103.864 21.235 103.555 20.9483 103.18 20.7498C102.783 20.5514 102.364 20.4411 101.901 20.4411C101.416 20.4411 100.997 20.5514 100.6 20.7498C100.225 20.9483 99.9164 21.235 99.6738 21.5878C99.4312 21.9406 99.2769 22.3596 99.2328 22.8668Z" fill="#142657"/>
<path d="M110.325 30.0337V13.4728H114.14V26.6818H122.167V30.0337H110.325Z" fill="#142657"/>
<path d="M129.466 30.2762C128.43 30.2762 127.503 30.0998 126.687 29.769C125.872 29.4383 125.188 28.9752 124.615 28.3798C124.063 27.8064 123.622 27.1228 123.336 26.3731C123.049 25.6233 122.895 24.8294 122.895 24.0135C122.895 23.1755 123.049 22.3817 123.336 21.6319C123.622 20.8822 124.041 20.2206 124.615 19.6252C125.166 19.0519 125.872 18.5888 126.687 18.236C127.503 17.9052 128.43 17.7288 129.466 17.7288C130.502 17.7288 131.429 17.9052 132.244 18.236C133.06 18.5667 133.744 19.0298 134.295 19.6252C134.847 20.1986 135.288 20.8822 135.574 21.6319C135.861 22.3817 136.015 23.1755 136.015 24.0135C136.015 24.8515 135.861 25.6233 135.574 26.3731C135.288 27.1228 134.847 27.7844 134.295 28.3798C133.744 28.9531 133.06 29.4162 132.244 29.769C131.429 30.0998 130.502 30.2762 129.466 30.2762ZM126.732 24.0356C126.732 24.653 126.842 25.2043 127.084 25.6674C127.327 26.1305 127.658 26.5054 128.055 26.7479C128.452 27.0126 128.915 27.1228 129.444 27.1228C129.951 27.1228 130.414 26.9905 130.833 26.7259C131.252 26.4613 131.561 26.0864 131.803 25.6233C132.046 25.1602 132.156 24.6089 132.156 24.0135C132.156 23.3961 132.046 22.8448 131.803 22.3817C131.561 21.9186 131.252 21.5437 130.833 21.3011C130.414 21.0365 129.951 20.9263 129.444 20.9263C128.915 20.9263 128.452 21.0586 128.055 21.3011C127.658 21.5658 127.327 21.9186 127.084 22.3817C126.842 22.8668 126.732 23.3961 126.732 24.0356Z" fill="#142657"/>
<path d="M137.074 26.4392C137.074 25.6453 137.294 24.9397 137.757 24.3443C138.198 23.7489 138.838 23.2858 139.632 22.933C140.426 22.5801 141.33 22.4258 142.366 22.4258C142.873 22.4258 143.358 22.4699 143.844 22.5581C144.329 22.6463 144.748 22.7566 145.101 22.9109V22.3817C145.101 21.7422 144.902 21.235 144.483 20.8822C144.086 20.5293 143.469 20.3529 142.631 20.3529C141.947 20.3529 141.308 20.4632 140.712 20.7057C140.117 20.9483 139.477 21.2791 138.816 21.6981L137.691 19.3165C138.507 18.7872 139.345 18.3903 140.227 18.1257C141.109 17.8611 142.035 17.7288 143.006 17.7288C144.836 17.7288 146.269 18.1698 147.284 19.0298C148.298 19.8898 148.805 21.1468 148.805 22.7786V25.91C148.805 26.2848 148.871 26.5274 148.982 26.6818C149.092 26.8361 149.312 26.9243 149.599 26.9464V30.0557C149.29 30.1219 149.004 30.166 148.717 30.188C148.452 30.2101 148.21 30.2321 148.011 30.2321C147.306 30.2321 146.777 30.0998 146.424 29.8131C146.049 29.5265 145.828 29.1516 145.74 28.6664L145.674 28.1372C145.123 28.8429 144.483 29.3721 143.733 29.7249C142.984 30.0998 142.19 30.2762 141.374 30.2762C140.558 30.2762 139.83 30.0998 139.191 29.769C138.551 29.4383 138.044 28.9752 137.669 28.3798C137.272 27.8064 137.074 27.1669 137.074 26.4392ZM144.505 26.8802C144.682 26.7479 144.814 26.5936 144.924 26.4392C145.034 26.2848 145.079 26.1084 145.079 25.9761V24.9176C144.77 24.8074 144.417 24.6971 144.042 24.631C143.667 24.5648 143.314 24.5207 142.984 24.5207C142.3 24.5207 141.727 24.6751 141.286 24.9617C140.845 25.2484 140.602 25.6453 140.602 26.1084C140.602 26.3731 140.69 26.6156 140.845 26.8582C140.999 27.0787 141.219 27.2551 141.484 27.3874C141.749 27.5197 142.079 27.5859 142.454 27.5859C142.829 27.5859 143.204 27.5197 143.579 27.3874C143.932 27.2551 144.263 27.0787 144.505 26.8802Z" fill="#142657"/>
<path d="M163.315 30.0336H159.589V23.2857C159.589 22.4919 159.434 21.9185 159.125 21.5657C158.817 21.2129 158.42 21.0364 157.935 21.0364C157.582 21.0364 157.251 21.1247 156.876 21.3011C156.523 21.4775 156.193 21.7201 155.906 22.0508C155.619 22.3596 155.399 22.7344 155.244 23.1314V30.0556H151.518V17.9271H154.869V20C155.178 19.5149 155.575 19.1179 156.038 18.7872C156.501 18.4564 157.031 18.1918 157.648 18.0154C158.265 17.8389 158.905 17.7507 159.633 17.7507C160.427 17.7507 161.066 17.883 161.551 18.1697C162.036 18.4564 162.411 18.8313 162.676 19.2944C162.94 19.7574 163.095 20.2426 163.183 20.7718C163.271 21.3011 163.315 21.8083 163.315 22.3155V30.0336Z" fill="#142657"/>
<path d="M165.874 30.0336V26.6818H168.432V30.0336H165.874Z" fill="#142657"/>
<path d="M170.306 21.6318C170.306 20.6175 170.482 19.6251 170.857 18.6549C171.232 17.6846 171.761 16.8025 172.445 15.9866C173.15 15.1927 174.01 14.5532 175.003 14.0681C176.017 13.5829 177.164 13.3624 178.465 13.3624C179.986 13.3624 181.31 13.6932 182.412 14.3548C183.515 15.0163 184.353 15.8984 184.904 16.9569L182.434 18.6549C182.147 18.0374 181.795 17.5302 181.332 17.1774C180.891 16.8025 180.405 16.5599 179.876 16.4056C179.369 16.2512 178.862 16.1851 178.355 16.1851C177.539 16.1851 176.833 16.3394 176.238 16.6702C175.642 17.001 175.135 17.42 174.738 17.9492C174.341 18.4784 174.032 19.0738 173.834 19.7133C173.635 20.3749 173.547 21.0144 173.547 21.6759C173.547 22.4037 173.658 23.1093 173.9 23.7929C174.143 24.4765 174.473 25.0719 174.892 25.5791C175.311 26.1084 175.841 26.5053 176.436 26.814C177.031 27.1227 177.693 27.2771 178.399 27.2771C178.906 27.2771 179.435 27.1889 179.964 27.0125C180.494 26.8361 180.979 26.5714 181.442 26.1966C181.883 25.8217 182.236 25.3365 182.5 24.7411L185.147 26.2627C184.816 27.0786 184.286 27.7843 183.559 28.3576C182.809 28.931 181.993 29.372 181.067 29.6587C180.141 29.9454 179.237 30.0997 178.333 30.0997C177.142 30.0997 176.061 29.8572 175.091 29.372C174.121 28.8869 173.261 28.2253 172.555 27.4094C171.849 26.5935 171.298 25.6673 170.901 24.6529C170.504 23.7047 170.306 22.6683 170.306 21.6318Z" fill="#142657"/>
<path d="M194.276 20.5293C193.328 20.5293 192.49 20.7057 191.74 21.0806C190.99 21.4555 190.461 21.9627 190.13 22.6463V30.0336H186.999V17.9272H189.866V20.419C190.307 19.5811 190.858 18.9195 191.52 18.4344C192.181 17.9492 192.887 17.6846 193.637 17.6405C193.813 17.6405 193.945 17.6405 194.034 17.6405C194.122 17.6405 194.21 17.6405 194.276 17.6626V20.5293Z" fill="#142657"/>
<path d="M201.531 30.2762C200.561 30.2762 199.657 30.0998 198.863 29.791C198.069 29.4603 197.385 28.9972 196.834 28.4238C196.283 27.8505 195.842 27.1889 195.533 26.4392C195.224 25.6894 195.07 24.8956 195.07 24.0796C195.07 22.9329 195.334 21.8745 195.842 20.9262C196.371 19.978 197.099 19.2062 198.091 18.6328C199.061 18.0595 200.208 17.7728 201.531 17.7728C202.876 17.7728 204.001 18.0595 204.971 18.6328C205.919 19.2062 206.647 19.978 207.154 20.9262C207.661 21.8745 207.904 22.8888 207.904 23.9914C207.904 24.1678 207.904 24.3663 207.882 24.5648C207.86 24.7632 207.86 24.9176 207.838 25.0279H198.4C198.466 25.6453 198.642 26.1746 198.951 26.6156C199.26 27.0787 199.635 27.4095 200.12 27.652C200.605 27.8946 201.112 28.0049 201.641 28.0049C202.259 28.0049 202.854 27.8505 203.405 27.5418C203.957 27.233 204.332 26.8361 204.53 26.351L207.22 27.1007C206.934 27.7182 206.493 28.2695 205.941 28.7546C205.39 29.2397 204.751 29.6146 204.001 29.8793C203.251 30.1439 202.435 30.2762 201.531 30.2762ZM198.333 23.0212H204.729C204.662 22.4037 204.486 21.8745 204.199 21.4334C203.913 20.9924 203.538 20.6396 203.075 20.3749C202.612 20.1103 202.082 20.0001 201.509 20.0001C200.958 20.0001 200.45 20.1324 199.987 20.3749C199.524 20.6175 199.149 20.9703 198.863 21.4334C198.576 21.8965 198.4 22.4037 198.333 23.0212Z" fill="#142657"/>
<path d="M209.095 23.9914C209.095 22.8227 209.337 21.7642 209.8 20.816C210.263 19.8677 210.903 19.118 211.741 18.5667C212.557 18.0154 213.505 17.7287 214.564 17.7287C215.468 17.7287 216.284 17.9492 217.011 18.3903C217.739 18.8313 218.29 19.4047 218.709 20.0883V13.0096H221.841V26.5494C221.841 26.8802 221.885 27.1007 221.995 27.2551C222.105 27.3874 222.282 27.4756 222.546 27.5197V30.0557C221.995 30.1659 221.554 30.21 221.223 30.21C220.672 30.21 220.209 30.0777 219.834 29.791C219.459 29.5044 219.261 29.1515 219.216 28.6885L219.172 27.9166C218.731 28.6885 218.114 29.2618 217.342 29.6587C216.57 30.0557 215.776 30.2762 214.938 30.2762C214.1 30.2762 213.329 30.1218 212.623 29.791C211.917 29.4603 211.3 29.0192 210.771 28.4459C210.241 27.8725 209.844 27.211 209.558 26.4612C209.227 25.6894 209.095 24.8735 209.095 23.9914ZM218.687 25.6012V22.7345C218.533 22.2934 218.29 21.8965 217.937 21.5437C217.585 21.1909 217.21 20.9042 216.791 20.7057C216.372 20.5072 215.953 20.397 215.534 20.397C215.049 20.397 214.608 20.4852 214.233 20.6837C213.836 20.8821 213.505 21.1467 213.218 21.4775C212.932 21.8083 212.711 22.2052 212.557 22.6463C212.402 23.0873 212.336 23.5504 212.336 24.0355C212.336 24.5207 212.425 24.9838 212.579 25.4248C212.733 25.8658 212.976 26.2407 213.285 26.5494C213.593 26.8802 213.946 27.1228 214.365 27.2992C214.784 27.4756 215.225 27.5638 215.71 27.5638C215.997 27.5638 216.306 27.5197 216.614 27.4094C216.923 27.3212 217.21 27.1669 217.474 26.9905C217.739 26.8141 217.982 26.5935 218.202 26.351C218.423 26.1746 218.577 25.8879 218.687 25.6012Z" fill="#142657"/>
<path d="M224.884 16.1189V13.0096H228.015V16.1189H224.884ZM224.884 30.0336V17.8169H228.015V30.0336H224.884Z" fill="#142657"/>
<path d="M238.159 29.4383C237.894 29.5485 237.586 29.6808 237.211 29.8132C236.836 29.9455 236.439 30.0557 236.02 30.1439C235.601 30.2321 235.16 30.2762 234.719 30.2762C234.145 30.2762 233.616 30.166 233.131 29.9675C232.646 29.769 232.271 29.4383 231.984 28.9972C231.698 28.5562 231.543 27.9829 231.543 27.2772V20.3309H229.934V17.9272H231.543V13.98H234.675V17.9493H237.233V20.3529H234.675V26.2408C234.697 26.6598 234.807 26.9464 235.028 27.1449C235.248 27.3213 235.513 27.4316 235.843 27.4316C236.174 27.4316 236.483 27.3875 236.792 27.2772C237.1 27.1669 237.343 27.0787 237.541 26.9905L238.159 29.4383Z" fill="#142657"/>
<path d="M30.0125 18.1036C29.2848 16.2071 28.2263 14.4871 26.8591 12.9655C25.4918 11.4439 23.86 10.2311 21.9636 9.32697C21.8092 9.26082 21.6769 9.19466 21.5225 9.1285C21.5887 9.0844 21.6548 9.06235 21.6989 9.0403C22.4487 8.64336 23.2205 8.26849 23.838 7.67309C24.6759 6.87922 24.8082 5.84279 24.2349 4.93867C23.9262 4.47558 23.5292 4.12275 23.0221 3.88018C22.7354 3.74787 22.4487 3.65967 22.162 3.52735C22.162 3.43915 22.1841 3.35094 22.1841 3.28478C22.4046 2.00578 21.8533 0.991401 20.6184 0.528313C19.2291 0.0211226 17.9281 0.263692 16.7373 1.12371C16.1419 1.56475 15.5686 2.02783 14.9511 2.46887C14.7747 2.60118 14.5542 2.66734 14.3337 2.73349C13.7824 2.9099 13.2311 3.04222 12.7018 3.24068C12.0844 3.48325 11.5772 3.85813 11.3126 4.49763C11.2244 4.71815 11.1802 4.96072 11.1141 5.20329C10.9377 5.22534 10.7613 5.24739 10.5849 5.2915C9.85714 5.48996 9.30585 5.84279 9.15149 6.65871C9.01917 7.40847 9.23969 8.00386 9.83509 8.42285C10.0336 8.55516 10.2541 8.68747 10.4746 8.79773C10.0997 8.93004 9.72483 9.0844 9.34995 9.23876C7.43145 10.0988 5.77756 11.2675 4.3883 12.745C3.04314 14.2666 1.94056 15.9425 1.16874 17.8169C0.396932 19.6913 0 21.676 0 23.7709C0 25.7996 0.37488 27.7623 1.10259 29.6587C1.8303 31.5552 2.88878 33.2531 4.25599 34.7747C5.6232 36.2963 7.25503 37.4871 9.15149 38.3912C11.0479 39.2953 13.1649 39.7364 15.5244 39.7364C17.7958 39.7364 19.8686 39.2953 21.7651 38.4353C23.6616 37.5753 25.3154 36.3845 26.7267 34.907C28.1381 33.4296 29.2186 31.7316 29.9904 29.8572C30.7622 27.9828 31.1371 25.9981 31.1371 23.9032C31.115 21.9406 30.7402 20 30.0125 18.1036ZM27.8073 27.0566C27.7191 28.4679 27.3221 29.791 26.2857 30.8274C25.4036 31.7316 24.3011 32.0844 22.9779 32.1285C24.4113 30.7613 25.3816 29.2177 25.8888 27.3212C25.6242 27.7843 25.4257 28.2033 25.1611 28.6002C23.3087 31.4228 20.7507 32.8562 17.6194 33.0547C17.1783 33.0767 16.7152 33.0988 16.2522 33.0767C13.8706 32.9885 11.7095 32.1726 9.79099 30.8054C9.72483 30.7613 9.65868 30.6951 9.57047 30.651C9.52637 30.6069 9.46021 30.5849 9.39405 30.5628C9.90125 31.4228 10.629 32.1065 11.4669 32.7018C11.092 32.746 10.6951 32.7901 10.3202 32.8121C6.50527 33.0326 3.46213 30.2541 3.30777 26.4391C3.24161 24.8735 3.59444 23.4181 4.27804 22.0288C5.84372 18.8092 8.02684 16.0748 10.9597 13.9799C11.7315 13.4286 12.5475 12.9876 13.4516 12.6788C13.6721 12.6127 13.8926 12.5686 14.1131 12.5465C14.3337 12.5245 14.4219 12.6568 14.3337 12.8773C14.2454 13.0537 14.1352 13.2301 14.0249 13.3845C13.628 13.8917 13.2311 14.3768 12.8341 14.884C12.79 14.9502 12.7459 14.9943 12.7018 15.0604C12.8341 14.9722 12.9664 14.884 13.0988 14.8179C13.8265 14.3327 14.466 13.7373 15.0393 13.0758C15.2157 12.8773 15.4362 12.7009 15.6568 12.6127C16.2301 12.3701 16.7814 12.5906 17.046 13.1419C17.3768 13.8035 17.8178 14.3989 18.303 14.9502C18.6999 15.3692 19.1189 15.7881 19.582 16.163C19.5379 16.0969 19.5158 16.0528 19.4717 15.9866C19.3174 15.744 19.163 15.5015 19.0086 15.2368C18.6117 14.5973 18.2148 13.9799 17.8399 13.3404C17.7296 13.164 17.7737 12.8994 17.7517 12.6788C17.9722 12.7229 18.2368 12.6788 18.4132 12.7891C19.0748 13.2081 19.7143 13.6491 20.3317 14.1343C22.4487 15.8102 24.3672 17.7066 25.8667 19.978C27.3442 22.0729 27.9837 24.4545 27.8073 27.0566ZM15.9214 10.2531C16.8476 10.2531 17.7737 10.3414 18.6337 10.7383C18.9204 10.8706 19.185 11.0691 19.4056 11.2675C19.6922 11.5321 19.7363 11.885 19.582 12.2819C17.1122 10.7383 14.6424 11.2455 12.2167 12.3481C11.7536 11.7968 11.8639 11.2896 12.5034 10.9809C13.5839 10.4516 14.7306 10.2752 15.9214 10.2531ZM13.3413 9.34902C14.047 9.1285 14.7085 9.23876 15.3701 9.59159C14.9732 9.65775 14.5762 9.70185 14.1793 9.76801C13.7824 9.83416 13.3634 9.94442 12.9444 10.0547C12.8782 9.6798 12.9885 9.48133 13.3413 9.34902ZM21.9195 4.36532C22.3605 4.45353 22.8456 4.60789 23.2426 4.93867C23.9482 5.51201 24.0144 6.41614 23.3308 7.01153C22.8677 7.40847 22.3164 7.73924 21.7872 8.04797C21.3682 8.29054 20.9271 8.51105 20.4861 8.73157C20.2435 8.84183 20.023 8.97414 19.7804 9.0844C19.4717 9.23876 19.2512 9.10645 19.2953 8.77568C19.3174 8.66542 19.3394 8.53311 19.3835 8.42285C19.4276 8.31259 19.4717 8.22438 19.5379 8.11412C20.3097 6.87922 21.1035 5.64432 21.9195 4.36532ZM12.3049 6.41614C11.7536 5.18124 12.0844 4.47558 13.3413 4.01249C13.7603 3.85813 14.2013 3.76992 14.6203 3.63761C14.8849 3.54941 15.1496 3.4612 15.3701 3.30684C16.0096 2.8217 16.605 2.31451 17.2224 1.82937C18.0383 1.21192 18.9204 0.947297 19.9569 1.16781C21.2138 1.43244 21.8092 2.35861 21.3241 3.57146C20.9712 4.40943 20.5081 5.22534 20.0451 6.01921C19.604 6.79102 19.1189 7.54078 18.6558 8.31259C18.5676 8.46695 18.4573 8.62131 18.3691 8.77568C18.2809 8.90799 18.1927 9.01825 18.1045 9.1285C17.3768 9.94442 16.1419 9.70185 15.767 8.68747C15.6788 8.46695 15.6127 8.24643 15.5465 8.02592C15.4803 7.78335 15.4142 7.56283 15.348 7.32026C15.2378 6.85717 15.1275 6.39408 15.0393 5.931C15.0834 6.63665 15.0393 7.32026 15.0834 8.02592C15.0834 8.13617 15.1055 8.26849 15.1055 8.37874C15.0834 8.70952 14.9291 8.84183 14.6203 8.84183C14.3116 8.84183 14.0029 8.81978 13.6941 8.77568C13.628 8.77568 13.5618 8.70952 13.5177 8.64337C13.4295 8.489 13.3413 8.33464 13.2531 8.18028C12.9003 7.58488 12.5695 7.01153 12.3049 6.41614Z" fill="#3289FF"/>
<path d="M18.3252 22.7785C17.818 22.5139 17.2226 22.2934 16.539 22.117C16.3846 22.0729 16.2303 22.0288 16.0759 21.9847V19.9339C16.2523 19.9559 16.4067 20 16.5831 20.0441C16.9139 20.1323 17.2006 20.2426 17.4872 20.3528C17.7519 20.4852 17.9944 20.5954 18.1708 20.6836C18.3473 20.7939 18.4575 20.86 18.4796 20.9262L19.5822 18.8533C19.2734 18.6769 18.8985 18.5005 18.4796 18.302C18.0606 18.1256 17.6195 17.9713 17.1565 17.8389C16.8698 17.7507 16.5611 17.7066 16.2523 17.6846V16.1851H15.1497V17.7066C14.6426 17.7507 14.1574 17.883 13.7164 18.0815C13.0989 18.3461 12.6138 18.7431 12.261 19.2723C11.9081 19.8015 11.7317 20.4411 11.7317 21.1908C11.7317 21.7421 11.842 22.2052 12.0404 22.558C12.2389 22.9329 12.5697 23.2196 12.9887 23.4842C13.4297 23.7268 13.959 23.9693 14.6205 24.1678C14.8631 24.234 15.1056 24.3222 15.3262 24.3883V26.395C15.1056 26.373 14.8851 26.3289 14.6646 26.2627C14.2677 26.1525 13.8928 26.0201 13.562 25.8658C13.2312 25.7114 12.9666 25.5791 12.7461 25.4468C12.5256 25.3145 12.3933 25.2263 12.3492 25.1601L11.2466 27.3433C11.6656 27.6299 12.1287 27.8725 12.6358 28.071C13.143 28.2694 13.6723 28.4238 14.2236 28.5341C14.5323 28.6002 14.819 28.6443 15.1277 28.6664V30.4526H16.2303V28.6884C16.6052 28.6664 16.98 28.6223 17.3329 28.5341C17.818 28.4238 18.259 28.2253 18.6339 27.9828C19.0088 27.7181 19.3175 27.3874 19.538 26.9684C19.7586 26.5494 19.8688 26.0422 19.8688 25.4248C19.8688 24.7632 19.7365 24.2119 19.4719 23.815C19.2073 23.3739 18.8324 23.0432 18.3252 22.7785ZM15.3041 21.7642C15.3041 21.7421 15.3041 21.7421 15.3041 21.7642C14.9513 21.6539 14.7087 21.5216 14.5323 21.3893C14.3559 21.257 14.2677 21.0585 14.2677 20.8159C14.2677 20.5072 14.3779 20.2867 14.5985 20.1323C14.7749 20.0221 14.9954 19.9559 15.2821 19.9339V21.7642H15.3041ZM16.8918 26.2186C16.7154 26.3509 16.4287 26.4171 16.0759 26.4171V24.6088C16.4067 24.7191 16.6713 24.8514 16.8698 24.9837C17.0903 25.1381 17.2006 25.3586 17.2006 25.6232C17.2006 25.8878 17.1124 26.0863 16.8918 26.2186Z" fill="#142657"/>
</svg>
