<svg width="28" height="28" viewBox="0 0 28 28" fill="none" xmlns="http://www.w3.org/2000/svg">
<path d="M6.98944 1.72705C6.29892 1.72787 5.62376 1.93092 5.04733 2.31111C4.4709 2.6913 4.01844 3.232 3.74582 3.86643L1.80944 8.3823C1.75938 8.49508 1.73545 8.61772 1.73944 8.74105V9.95293C1.73944 11.1876 2.46832 12.2542 3.51132 12.7704V23.0779C3.51132 24.8078 4.93144 26.2279 6.66132 26.2279H16.6144C16.8465 26.2279 17.0691 26.1357 17.2332 25.9716C17.3973 25.8075 17.4894 25.585 17.4894 25.3529C17.4894 25.1209 17.3973 24.8983 17.2332 24.7342C17.0691 24.5701 16.8465 24.4779 16.6144 24.4779H6.66132C5.87032 24.4779 5.26132 23.8689 5.26132 23.0779V13.0635C5.98627 12.9778 6.65879 12.6424 7.16357 12.1151C7.45604 12.4258 7.80877 12.6736 8.20021 12.8434C8.59166 13.0133 9.01361 13.1016 9.44032 13.1029C9.86677 13.1016 10.2885 13.0134 10.6797 12.8435C11.0708 12.6737 11.4232 12.4258 11.7153 12.1151C12.2902 12.7197 13.0961 13.1029 13.9894 13.1029C14.8828 13.1029 15.6887 12.7197 16.2644 12.1151C16.5565 12.4258 16.9089 12.6737 17.3001 12.8435C17.6913 13.0134 18.113 13.1016 18.5394 13.1029C18.9659 13.1013 19.3875 13.0129 19.7786 12.8431C20.1697 12.6733 20.5222 12.4255 20.8144 12.1151C21.1065 12.4258 21.4589 12.6737 21.8501 12.8435C22.2413 13.0134 22.663 13.1016 23.0894 13.1029C24.8193 13.1029 26.2394 11.6828 26.2394 9.95293V8.9143C26.2785 8.73537 26.2605 8.54868 26.1878 8.38055L24.2374 3.86205C23.9631 3.2286 23.5095 2.68913 22.9326 2.30998C22.3558 1.93083 21.6806 1.72852 20.9903 1.72793L6.98944 1.72705ZM3.48944 9.60205H6.28944V9.95205C6.28944 10.743 5.67957 11.352 4.88944 11.352C4.09932 11.352 3.48944 10.743 3.48944 9.95205V9.60205ZM8.03944 9.60205H10.8394V9.95205C10.8394 10.743 10.2313 11.352 9.43944 11.352C9.25481 11.3549 9.07149 11.3206 8.90035 11.2513C8.72921 11.1819 8.57375 11.0789 8.44318 10.9483C8.31261 10.8177 8.20959 10.6623 8.14024 10.4911C8.07088 10.32 8.03661 10.1367 8.03944 9.95205V9.60205ZM12.5894 9.60205H15.3894V9.95205C15.3894 10.743 14.7804 11.352 13.9894 11.352C13.1984 11.352 12.5894 10.743 12.5894 9.95205V9.60205ZM17.1394 9.60205H19.9394V9.95205C19.9394 10.7422 19.3296 11.352 18.5394 11.352C17.7493 11.352 17.1394 10.743 17.1394 9.95205V9.60205ZM21.6894 9.60205H24.4894V9.95205C24.4894 10.743 23.8804 11.352 23.0894 11.352C22.2993 11.352 21.6894 10.743 21.6894 9.95205V9.60205Z" fill="#3289FF"/>
<path d="M21.5224 14.4268C18.9175 14.4268 16.8044 16.5968 16.8044 19.227C16.8044 23.3946 21.0271 26.1194 21.0271 26.1194C21.173 26.2196 21.3458 26.2733 21.5228 26.2733C21.6998 26.2733 21.8726 26.2196 22.0185 26.1194C22.0185 26.1194 26.2395 23.3946 26.2395 19.227C26.2395 16.5959 24.1273 14.4268 21.5224 14.4268ZM21.4874 17.953C21.499 17.9528 21.5107 17.9528 21.5224 17.953C21.6861 17.953 21.8482 17.986 21.9994 18.05C22.1506 18.114 22.288 18.2079 22.4037 18.3262C22.5194 18.4445 22.6112 18.585 22.6738 18.7395C22.7363 18.8941 22.7685 19.0597 22.7684 19.227C22.7684 19.3942 22.7361 19.5597 22.6735 19.7142C22.6109 19.8687 22.5191 20.009 22.4034 20.1272C22.2877 20.2455 22.1504 20.3392 21.9992 20.4032C21.848 20.4672 21.686 20.5001 21.5224 20.5001C21.1921 20.4999 20.8754 20.3657 20.6419 20.1269C20.4084 19.8882 20.2773 19.5645 20.2773 19.227C20.2771 18.8958 20.4033 18.5775 20.6291 18.3398C20.8549 18.1021 21.1625 17.9637 21.4865 17.9539L21.4874 17.953ZM7.8645 15.727C7.63244 15.727 7.40988 15.8192 7.24578 15.9833C7.08169 16.1474 6.9895 16.3699 6.9895 16.602V20.977C6.9895 21.2091 7.08169 21.4316 7.24578 21.5957C7.40988 21.7598 7.63244 21.852 7.8645 21.852H13.0708C13.3028 21.852 13.5254 21.7598 13.6895 21.5957C13.8536 21.4316 13.9458 21.2091 13.9458 20.977V16.602C13.9458 16.3699 13.8536 16.1474 13.6895 15.9833C13.5254 15.8192 13.3028 15.727 13.0708 15.727H7.8645Z" fill="#3289FF"/>
</svg>
