<svg width="48" height="48" viewBox="0 0 48 48" fill="none" xmlns="http://www.w3.org/2000/svg">
<g clip-path="url(#clip0_5548_4921)">
<path d="M24 48C37.2548 48 48 37.2548 48 24C48 10.7452 37.2548 0 24 0C10.7452 0 0 10.7452 0 24C0 37.2548 10.7452 48 24 48Z" fill="#0084FF"/>
<path d="M39 23.4355C39 31.1073 32.2827 37.3255 24 37.3255C22.5458 37.3264 21.0982 37.131 19.6964 36.7446L14.5882 39.5455V34.2491C11.1818 31.7046 9 27.8182 9 23.4355C9 15.7637 15.7173 9.54547 24 9.54547C32.2827 9.54547 39 15.7664 39 23.4355Z" fill="white"/>
<path d="M33.69 19.5464L25.4891 28.2464L21.6709 24.1746L14.2173 28.2491L22.4182 19.5464L26.3318 23.6182L33.69 19.5464Z" fill="#2196F3"/>
</g>
<defs>
<clipPath id="clip0_5548_4921">
<rect width="48" height="48" fill="white"/>
</clipPath>
</defs>
</svg>
