<svg width="25" height="24" viewBox="0 0 25 24" fill="none" xmlns="http://www.w3.org/2000/svg">
<g clip-path="url(#clip0_5548_9843)">
<path d="M12.8333 24C19.4607 24 24.8333 18.6274 24.8333 12C24.8333 5.37258 19.4607 0 12.8333 0C6.20583 0 0.833252 5.37258 0.833252 12C0.833252 18.6274 6.20583 24 12.8333 24Z" fill="#0084FF"/>
<path d="M20.3333 11.7177C20.3333 15.5536 16.9746 18.6627 12.8333 18.6627C12.1062 18.6632 11.3824 18.5655 10.6814 18.3723L8.12734 19.7727V17.1245C6.42416 15.8523 5.33325 13.9091 5.33325 11.7177C5.33325 7.8818 8.69189 4.77271 12.8333 4.77271C16.9746 4.77271 20.3333 7.88316 20.3333 11.7177Z" fill="white"/>
<path d="M17.6783 9.77319L13.5778 14.1232L11.6687 12.0873L7.94189 14.1246L12.0423 9.77319L13.9992 11.8091L17.6783 9.77319Z" fill="#2196F3"/>
</g>
<defs>
<clipPath id="clip0_5548_9843">
<rect width="24" height="24" fill="white" transform="translate(0.833252)"/>
</clipPath>
</defs>
</svg>
