<svg width="24" height="25" viewBox="0 0 24 25" fill="none" xmlns="http://www.w3.org/2000/svg">
<path d="M12 24.3501C18.6274 24.3501 24 18.9775 24 12.3501C24 5.72268 18.6274 0.350098 12 0.350098C5.37258 0.350098 0 5.72268 0 12.3501C0 18.9775 5.37258 24.3501 12 24.3501Z" fill="#0084FF"/>
<path d="M19.5 12.0676C19.5 15.9035 16.1414 19.0126 12 19.0126C11.2729 19.013 10.5491 18.9153 9.84818 18.7221L7.29409 20.1226V17.4744C5.59091 16.2021 4.5 14.2589 4.5 12.0676C4.5 8.23165 7.85864 5.12256 12 5.12256C16.1414 5.12256 19.5 8.23301 19.5 12.0676Z" fill="white"/>
<path d="M16.8448 10.1235L12.7443 14.4735L10.8352 12.4376L7.1084 14.4749L11.2089 10.1235L13.1657 12.1594L16.8448 10.1235Z" fill="#2196F3"/>
</svg>
