<svg width="239" height="40"  version="1.1" id="Layer_1" xmlns="http://www.w3.org/2000/svg" xmlns:xlink="http://www.w3.org/1999/xlink" x="0px" y="0px"
	 viewBox="0 0 1080 133.5" style="enable-background:new 0 0 1080 133.5;" xml:space="preserve">
<style type="text/css">
	.st0{fill:#402368;}
	.st1{fill:#9253DB;}
	.st2{fill:#02210F;}
	.st3{fill:#3289FF;}
	.st4{fill:#0AA34F;}
	.st5{fill:#FF9C00;}
	.st6{fill:#FE0104;}
	.st7{fill:#142657;}
</style>
<g>
	<g>
		<g>
			<g>
				<g>
					<path class="st7" d="M95.4,31.5c11.4,0,21.5,5.4,27.9,13.7C115.3,28.5,98.2,17,78.5,17C51,17,28.7,39.3,28.7,66.7
						s22.3,49.8,49.8,49.8c19.7,0,36.8-11.5,44.9-28.2c-6.5,8.4-16.6,13.8-27.9,13.8c-19.5,0-35.3-15.8-35.3-35.3
						C60.1,47.2,75.9,31.5,95.4,31.5z"/>
				</g>
				<path class="st6" d="M26,52.3c0.4-1.3,0.8-2.6,1.2-3.9C26.8,49.7,26.4,51,26,52.3z"/>
				<path class="st6" d="M29.3,90c0.6,1.2,1.1,2.3,1.8,3.5C30.4,92.3,29.8,91.2,29.3,90z"/>
				<path class="st6" d="M33.7,35.9c-1.1,1.6-2.2,3.4-3.1,5.1C31.4,39.3,32.5,37.6,33.7,35.9L33.7,35.9z"/>
				<path class="st3" d="M95.4,0c-21.2,0-40,9.9-52.3,25.3c9.5-8.1,21.9-13.1,35.4-13.1c30.1,0,54.5,24.5,54.5,54.5
					s-24.5,54.5-54.5,54.5c-13.5,0-25.8-4.9-35.4-13.1c12.2,15.4,31.1,25.3,52.3,25.3c36.9,0,66.7-29.9,66.7-66.7
					C162.1,29.9,132.3,0,95.4,0z"/>
				<g>
					<path class="st3" d="M10.7,45.1c-0.1,0.8,0,1.4,0.4,2c0.3,0.5,0.9,1,1.6,1.4c0.2-2,0.5-4,0.9-6c-0.8,0-1.4,0.2-1.9,0.6
						C11.2,43.5,10.8,44.2,10.7,45.1z"/>
					<path class="st3" d="M14.1,59.4c0.8-0.2,1.4-0.5,1.8-1.1c0.4-0.5,0.7-1.2,0.7-1.9c0-0.7-0.2-1.3-0.6-1.8
						c-0.4-0.5-1-0.9-1.8-1.2C14.1,55.4,14.1,57.4,14.1,59.4z"/>
					<path class="st3" d="M31.1,93.4c-0.6-1.1-1.2-2.3-1.8-3.5c-0.3-0.6-0.5-1.1-0.8-1.7c-0.4-0.9-0.8-1.8-1.1-2.8
						c-0.2-0.4-0.3-0.8-0.5-1.3c-0.3-0.9-0.6-1.7-0.8-2.6c-0.1-0.4-0.2-0.9-0.4-1.3c-0.1-0.4-0.2-0.9-0.3-1.3
						c-0.2-0.9-0.4-1.8-0.5-2.7c-0.2-0.9-0.3-1.8-0.4-2.7c-0.1-0.5-0.1-0.9-0.2-1.4c-0.1-0.4-0.1-0.9-0.1-1.3v-0.1
						c-0.1-1.4-0.2-2.8-0.2-4.2c0-0.5,0-0.9,0-1.4c0-0.5,0-0.9,0.1-1.4c0-1,0.1-2,0.2-3c0-0.3,0-0.6,0.1-0.9c0-0.2,0-0.4,0.1-0.5
						c0.1-0.7,0.2-1.4,0.3-2.1c0-0.1,0-0.3,0.1-0.4c0.1-0.4,0.1-0.8,0.2-1.2c0.1-0.5,0.2-1,0.3-1.4c0.2-0.7,0.3-1.3,0.5-2
						c0.4-1.3,0.8-2.6,1.2-3.9c0.2-0.6,0.5-1.3,0.7-1.9c0.2-0.6,0.5-1.2,0.8-1.8c0.3-0.6,0.6-1.2,0.9-1.8c0.3-0.6,0.6-1.2,0.9-1.8
						c1-1.8,2-3.5,3.1-5.1l0,0L1.9,25.6l-0.6,2.9c-1.5,8-4.3,31.2,9.6,53.4c6.7,9.4,16.6,18.4,31.2,25.4
						C37.7,103.3,34,98.6,31.1,93.4z M21.8,46.7c-1.6-0.2-3.1-0.5-4.7-0.7c0-0.6-0.1-1.2-0.4-1.8c-0.3-0.5-0.7-1-1.2-1.3
						c-0.4,2.1-0.7,4.2-0.9,6.4c1.5,0.6,2.7,1.1,3.5,1.6c0.9,0.5,1.6,1.1,2.2,2c0.6,0.9,0.9,2,0.8,3.5c0,1.1-0.3,2.1-0.9,3.1
						c-0.5,1-1.3,1.8-2.4,2.5c-1,0.7-2.3,1.1-3.7,1.3c0,0.9,0.1,1.8,0.2,2.8c-0.7,0.1-1.3,0.1-2,0.2c-0.1-1-0.1-1.9-0.2-2.9
						c-2.1-0.1-3.8-0.7-5.1-2c-1.3-1.2-2-3-2-5.2c1.6,0,3.1,0.1,4.7,0.1c0.1,1.7,0.9,2.8,2.3,3.1c0-2.2,0-4.4,0.2-6.7
						c-1.5-0.5-2.6-1-3.5-1.5c-0.9-0.5-1.6-1.3-2.2-2.3c-0.6-1.1-0.7-2.5-0.5-4.2c0.3-2.2,1.3-3.8,2.8-4.9c1.5-1.1,3.4-1.4,5.4-1.1
						c0.2-0.9,0.4-1.8,0.7-2.7c0.6,0.2,1.3,0.3,1.9,0.5c-0.2,0.9-0.5,1.8-0.7,2.7c1.9,0.6,3.3,1.6,4.3,2.9
						C21.5,43.3,21.9,44.8,21.8,46.7z"/>
				</g>
			</g>
		</g>
		<circle class="st7" cx="104.9" cy="52.8" r="20"/>
	</g>
	<g>
		<path class="st7" d="M224.3,40.8c-5.1-2.9-10.8-4.3-17.1-4.3c-6.2,0-11.9,1.5-17,4.3c-5.2,2.9-9.3,6.9-12.3,12.1
			c-3,5.1-4.5,10.9-4.5,17.4c0,6.5,1.5,12.3,4.5,17.4c3,5.1,7.1,9.2,12.3,12.1c5.2,2.9,10.8,4.3,17,4.3c6.2,0,11.9-1.5,17-4.3
			c5.2-2.9,9.3-6.9,12.2-12.1c3-5.1,4.5-11,4.5-17.4c0-6.4-1.5-12.2-4.5-17.4C233.5,47.7,229.5,43.7,224.3,40.8z M224.9,81.8
			c-1.7,3.3-4.1,5.9-7.1,7.7c-3,1.8-6.5,2.7-10.5,2.7c-4,0-7.5-0.9-10.5-2.7c-3.1-1.8-5.4-4.4-7.1-7.7c-1.7-3.3-2.6-7.2-2.6-11.6
			c0-4.4,0.9-8.3,2.6-11.6c1.7-3.3,4.1-5.8,7.1-7.6c3.1-1.8,6.6-2.6,10.5-2.6c4,0,7.5,0.9,10.5,2.6c3,1.8,5.4,4.3,7.1,7.6
			c1.7,3.3,2.6,7.2,2.6,11.6C227.4,74.6,226.6,78.5,224.9,81.8z"/>
		<path class="st7" d="M279.9,50.2c-3.3,0-6.3,0.6-9,1.9c-2.7,1.3-5,3.1-6.8,5.3V51h-13.2v52.4h13.2V74.4c0-4.2,1.1-7.4,3.2-9.6
			c2.1-2.2,5-3.4,8.7-3.4c3.6,0,6.4,1.1,8.5,3.4c2.1,2.2,3.1,5.4,3.1,9.6v28.9h13.2V72.6c0-7.1-1.9-12.6-5.8-16.5
			C291.2,52.2,286.1,50.2,279.9,50.2z"/>
		<rect x="313.4" y="33.4" class="st7" width="13.2" height="70"/>
		<rect x="339.7" y="51" class="st7" width="13.2" height="52.4"/>
		<path class="st7" d="M346.4,29.2c-2.3,0-4.3,0.7-5.8,2.2c-1.5,1.5-2.3,3.3-2.3,5.5s0.8,4,2.3,5.5c1.5,1.5,3.5,2.2,5.8,2.2
			c2.3,0,4.3-0.7,5.8-2.2c1.5-1.5,2.3-3.3,2.3-5.5s-0.8-4-2.3-5.5C350.6,30,348.7,29.2,346.4,29.2z"/>
		<path class="st7" d="M395,50.2c-3.3,0-6.3,0.6-9,1.9c-2.7,1.3-5,3.1-6.8,5.3V51H366v52.4h13.2V74.4c0-4.2,1.1-7.4,3.2-9.6
			c2.1-2.2,5-3.4,8.7-3.4c3.6,0,6.4,1.1,8.5,3.4c2.1,2.2,3.1,5.4,3.1,9.6v28.9h13.2V72.6c0-7.1-1.9-12.6-5.8-16.5
			C406.3,52.2,401.2,50.2,395,50.2z"/>
		<path class="st7" d="M464.7,53.4c-3.9-2.1-8.4-3.2-13.4-3.2c-5.2,0-9.7,1.1-13.7,3.3s-7.1,5.4-9.3,9.5c-2.2,4.1-3.3,8.9-3.3,14.3
			c0,5.4,1.1,10.1,3.4,14.2c2.2,4.1,5.4,7.3,9.4,9.5c4,2.2,8.5,3.4,13.6,3.4c6.2,0,11.5-1.6,15.8-4.9c4.3-3.2,7.2-7.4,8.7-12.4
			h-14.3c-2.1,4.2-5.6,6.3-10.5,6.3c-3.4,0-6.3-1.1-8.6-3.2s-3.7-5.1-4-8.9h38.3c0.3-1.5,0.4-3.2,0.4-5.1c0-5.1-1.1-9.6-3.3-13.6
			C471.7,58.5,468.7,55.5,464.7,53.4z M438.6,72.3c0.5-3.5,1.9-6.3,4.1-8.3c2.2-2,5-3,8.3-3c3.5,0,6.4,1,8.8,3.1
			c2.4,2.1,3.6,4.8,3.7,8.2H438.6z"/>
		<polygon class="st7" points="500,37.4 486.8,37.4 486.8,103.4 521.8,103.4 521.8,92.9 500,92.9 		"/>
		<path class="st7" d="M567.6,53.5c-4.1-2.2-8.7-3.4-13.7-3.4c-5,0-9.6,1.1-13.7,3.4c-4.1,2.2-7.3,5.4-9.7,9.5
			c-2.4,4.1-3.5,8.8-3.5,14.2c0,5.4,1.1,10.1,3.5,14.2c2.3,4.1,5.5,7.3,9.5,9.5c4,2.2,8.6,3.4,13.6,3.4c5.1,0,9.7-1.1,13.9-3.4
			c4.1-2.2,7.4-5.4,9.8-9.5c2.4-4.1,3.6-8.8,3.6-14.2c0-5.4-1.2-10.1-3.5-14.2C574.9,58.9,571.7,55.7,567.6,53.5z M565.3,85.7
			c-1.3,2.3-2.9,4.1-5.1,5.2c-2.1,1.2-4.4,1.8-6.8,1.8c-3.8,0-6.9-1.3-9.4-4c-2.5-2.7-3.7-6.5-3.7-11.5s1.3-8.8,3.8-11.5
			c2.6-2.7,5.7-4,9.5-4s7,1.3,9.6,4c2.6,2.7,3.9,6.5,3.9,11.5C567.2,80.5,566.6,83.4,565.3,85.7z"/>
		<path class="st7" d="M628.4,58.5c-1.8-2.4-4.1-4.4-7-6c-2.9-1.6-6.4-2.4-10.3-2.4c-4.5,0-8.5,1.1-12.2,3.3
			c-3.6,2.2-6.5,5.4-8.6,9.5c-2.1,4.1-3.2,8.8-3.2,14.1c0,5.4,1.1,10.1,3.2,14.2c2.1,4.1,5,7.3,8.6,9.6c3.6,2.3,7.6,3.4,12.1,3.4
			c3.9,0,7.4-0.8,10.4-2.4c3-1.6,5.3-3.6,7-6.1v7.7h13.3V51h-13.3V58.5z M626.5,85.5c-1.3,2.3-3,4.1-5.1,5.3
			c-2.1,1.2-4.4,1.8-6.9,1.8c-2.4,0-4.6-0.6-6.8-1.9c-2.1-1.3-3.8-3.1-5.1-5.4c-1.3-2.4-1.9-5.1-1.9-8.3c0-3.2,0.6-5.9,1.9-8.2
			c1.3-2.3,3-4,5.1-5.2c2.1-1.2,4.3-1.8,6.8-1.8s4.8,0.6,6.9,1.8c2.1,1.2,3.8,3,5.1,5.3c1.3,2.3,1.9,5.1,1.9,8.3
			C628.4,80.4,627.7,83.2,626.5,85.5z"/>
		<path class="st7" d="M683.7,50.2c-3.3,0-6.3,0.6-9,1.9c-2.7,1.3-5,3.1-6.8,5.3V51h-13.2v52.4h13.2V74.4c0-4.2,1.1-7.4,3.2-9.6
			c2.1-2.2,5-3.4,8.7-3.4c3.6,0,6.4,1.1,8.5,3.4c2.1,2.2,3.1,5.4,3.1,9.6v28.9h13.2V72.6c0-7.1-1.9-12.6-5.8-16.5
			C695,52.2,689.9,50.2,683.7,50.2z"/>
		<path class="st7" d="M748.7,75.4c-2.5-1-5.6-2-9.4-2.9c-3.7-0.9-6.5-1.9-8.2-2.8c-1.8-0.9-2.6-2.3-2.6-4c0-1.6,0.6-2.8,1.9-3.7
			c1.3-0.9,3.1-1.3,5.5-1.3c2.6,0,4.6,0.6,6.2,1.8c1.5,1.2,2.4,2.9,2.6,5h12.7c-0.4-5.3-2.4-9.5-6.1-12.6c-3.7-3.1-8.7-4.7-14.9-4.7
			c-4.2,0-7.9,0.7-11,2.1c-3.1,1.4-5.5,3.3-7.2,5.7c-1.7,2.4-2.5,5-2.5,7.9c0,3.5,0.9,6.3,2.7,8.4s3.9,3.6,6.4,4.6
			c2.5,1,5.7,2,9.6,2.9c3.8,1,6.5,1.9,8.3,2.8c1.7,0.9,2.6,2.1,2.6,3.8c0,1.6-0.7,2.9-2.1,3.9c-1.4,1-3.4,1.5-5.9,1.5
			c-2.6,0-4.7-0.7-6.5-2c-1.7-1.3-2.7-3-3-5h-13.3c0.2,3.2,1.3,6.1,3.3,8.8c2,2.6,4.7,4.7,8.1,6.3c3.4,1.5,7.2,2.3,11.5,2.3
			c4.2,0,7.8-0.7,10.9-2c3.1-1.4,5.5-3.2,7.2-5.6c1.7-2.4,2.5-5.1,2.5-8.1c-0.1-3.5-1-6.3-2.8-8.4C753.2,78,751.1,76.4,748.7,75.4z"
			/>
		<path class="st3" d="M774.6,88.5c-2.4,0-4.4,0.7-5.9,2.2c-1.5,1.5-2.3,3.3-2.3,5.5s0.8,4,2.3,5.5c1.5,1.5,3.5,2.2,5.9,2.2
			c2.3,0,4.3-0.7,5.8-2.2c1.5-1.5,2.3-3.3,2.3-5.5s-0.8-4-2.3-5.5C778.8,89.3,776.9,88.5,774.6,88.5z"/>
		<path class="st3" d="M813.2,51.1c3-1.8,6.4-2.7,10.3-2.7c3.6,0,6.8,0.8,9.5,2.4c2.7,1.6,4.9,3.9,6.4,7.1h15.2
			c-2.2-6.7-6.1-11.9-11.6-15.7c-5.5-3.8-12-5.7-19.4-5.7c-6.3,0-12,1.4-17.1,4.3c-5.1,2.9-9.1,6.9-12,12c-2.9,5.1-4.4,11-4.4,17.4
			s1.5,12.3,4.4,17.4c2.9,5.1,6.9,9.1,12,12c5.1,2.9,10.8,4.3,17.1,4.3c7.4,0,13.9-1.9,19.4-5.6c5.5-3.7,9.4-9,11.6-15.7h-15.2
			c-1.5,3.2-3.6,5.5-6.4,7.1c-2.7,1.6-5.9,2.4-9.5,2.4c-3.8,0-7.3-0.9-10.3-2.7c-3-1.8-5.3-4.3-7-7.7c-1.7-3.3-2.5-7.1-2.5-11.5
			c0-4.4,0.8-8.3,2.5-11.5C807.9,55.5,810.2,52.9,813.2,51.1z"/>
		<path class="st3" d="M879.1,59.1V51h-13.2v52.4h13.2V77.3c0-4.9,1.1-8.3,3.2-10.2c2.1-2,5.2-2.9,9.4-2.9h3.5V50.2
			c-3.5,0-6.7,0.8-9.4,2.4C883.1,54.2,880.9,56.3,879.1,59.1z"/>
		<path class="st3" d="M940.4,53.4c-3.9-2.1-8.4-3.2-13.4-3.2c-5.2,0-9.7,1.1-13.7,3.3c-4,2.2-7.1,5.4-9.3,9.5
			c-2.2,4.1-3.3,8.9-3.3,14.3c0,5.4,1.1,10.1,3.4,14.2c2.2,4.1,5.4,7.3,9.4,9.5c4,2.2,8.5,3.4,13.6,3.4c6.2,0,11.5-1.6,15.8-4.9
			c4.3-3.2,7.2-7.4,8.7-12.4h-14.3c-2.1,4.2-5.6,6.3-10.5,6.3c-3.4,0-6.3-1.1-8.6-3.2c-2.3-2.1-3.7-5.1-4-8.9h38.3
			c0.3-1.5,0.4-3.2,0.4-5.1c0-5.1-1.1-9.6-3.3-13.6C947.4,58.5,944.3,55.5,940.4,53.4z M914.2,72.3c0.5-3.5,1.9-6.3,4.1-8.3
			c2.2-2,5-3,8.3-3c3.5,0,6.4,1,8.8,3.1c2.4,2.1,3.6,4.8,3.7,8.2H914.2z"/>
		<path class="st3" d="M1000.2,58.3c-1.8-2.5-4.3-4.4-7.4-5.9c-3.1-1.5-6.3-2.2-9.7-2.2c-4.5,0-8.5,1.1-12.2,3.3
			c-3.7,2.2-6.5,5.4-8.7,9.5c-2.1,4.1-3.2,8.8-3.2,14.1c0,5.4,1.1,10.1,3.2,14.2c2.1,4.1,5,7.3,8.7,9.6c3.7,2.3,7.7,3.4,12.1,3.4
			c3.9,0,7.3-0.8,10.3-2.4c3-1.6,5.3-3.7,6.9-6.2v7.8h13.4v-70h-13.4V58.3z M998.4,85.5c-1.3,2.3-3,4.1-5.1,5.3
			c-2.1,1.2-4.4,1.8-6.9,1.8c-2.4,0-4.7-0.6-6.8-1.9c-2.1-1.3-3.8-3.1-5.1-5.4c-1.3-2.4-1.9-5.1-1.9-8.3c0-3.2,0.6-5.9,1.9-8.2
			c1.3-2.3,3-4,5.1-5.2c2.1-1.2,4.3-1.8,6.8-1.8s4.8,0.6,6.9,1.8c2.1,1.2,3.8,3,5.1,5.3c1.3,2.3,1.9,5.1,1.9,8.3
			C1000.3,80.4,999.7,83.2,998.4,85.5z"/>
		<path class="st3" d="M1033.3,29.2c-2.3,0-4.3,0.7-5.8,2.2c-1.5,1.5-2.3,3.3-2.3,5.5s0.8,4,2.3,5.5c1.5,1.5,3.5,2.2,5.8,2.2
			c2.3,0,4.3-0.7,5.8-2.2c1.5-1.5,2.3-3.3,2.3-5.5s-0.8-4-2.3-5.5C1037.6,30,1035.6,29.2,1033.3,29.2z"/>
		<rect x="1026.6" y="51" class="st3" width="13.2" height="52.4"/>
		<path class="st3" d="M1080,61.9V51h-11.7V38h-13.3v13h-6.2v10.9h6.2v25.2c0,10.8,5.6,16.3,16.7,16.3h8.3V92.2h-6.1
			c-2,0-3.5-0.4-4.3-1.2c-0.9-0.8-1.3-2.1-1.3-3.8V61.9H1080z"/>
	</g>
</g>
</svg>
