<svg width="28" height="28" viewBox="0 0 28 28" fill="none" xmlns="http://www.w3.org/2000/svg">
<g clip-path="url(#clip0_5351_3821)">
<path d="M13.3125 7.22998V15.7858H18.7656V14.2815H14.8168V7.22998H13.3125Z" fill="#3289FF"/>
<path d="M28 14.0905C28 6.92134 22.1594 1.09033 14.9903 1.09033C8.55995 1.09033 3.20787 5.81971 2.17253 11.931H0.0843523L3.68549 18.1363L7.39213 11.931H5.23353C6.2213 7.41804 10.2256 4.09896 14.9973 4.09896C20.5073 4.09896 24.9914 8.58116 24.9914 14.0912C24.9914 18.8525 21.5862 22.8454 17.1673 23.843V26.91C23.2785 25.8746 28 20.5207 28 14.0905ZM2.29297 25.5499L3.24962 24.5329C3.87118 23.8564 4.29766 23.3501 4.52913 23.0071C4.76061 22.6639 4.87635 22.2709 4.87635 21.8241C4.87635 21.1604 4.6586 20.6387 4.22319 20.2565C3.78779 19.8747 3.18164 19.6838 2.40466 19.6838C1.67291 19.6838 1.08538 19.9118 0.641889 20.3664C0.198304 20.8213 -0.0154026 21.3888 0.000862815 22.0427L0.0106409 22.085H1.61311C1.61311 21.7089 1.68353 21.4821 1.82437 21.2733C1.96522 21.0642 2.15861 20.9535 2.40476 20.9535C2.67986 20.9535 2.88623 21.0312 3.02378 21.1931C3.16143 21.355 3.23016 21.5702 3.23016 21.8423C3.23016 22.0332 3.16218 22.2574 3.02623 22.5163C2.89028 22.7754 2.69424 23.0695 2.40636 23.3999L0.149696 25.7886V26.8801H5.03872V25.5638H2.30754L2.29297 25.5499Z" fill="#3289FF"/>
<path d="M9.55163 19.8289H7.95329V19.8013L5.09961 24.3689L5.17896 25.376H7.95329V26.8804H9.55163V25.376H10.3038V24.1538H9.55163V19.8289ZM7.95329 24.1538H6.54845L7.76253 22.1338L7.90647 21.9214L7.95329 21.9187V24.1538ZM15.6629 26.8804V23.8367C15.6629 23.6104 15.6685 23.4029 15.6435 23.2105C15.5802 22.7253 15.4486 22.3452 15.2263 22.074C14.9154 21.6952 14.493 21.5058 13.9491 21.5058C13.6739 21.5058 13.4425 21.5713 13.2143 21.7025C12.986 21.8337 12.7483 22.0175 12.6543 22.2537V19.7349H10.9619V26.8804H12.6543V23.0354C12.6543 22.9513 12.8112 22.8857 12.9279 22.8387C13.0443 22.7919 13.173 22.7684 13.3316 22.7684C13.5809 22.7684 13.7637 22.8445 13.8851 22.9965C14.0066 23.1487 14.0646 23.4255 14.0646 23.8271V26.8804H15.6629Z" fill="#3289FF"/>
</g>
<defs>
<clipPath id="clip0_5351_3821">
<rect width="28" height="28" fill="white"/>
</clipPath>
</defs>
</svg>
