<svg width="24" height="24" viewBox="0 0 24 24" fill="none" xmlns="http://www.w3.org/2000/svg">
<g clip-path="url(#clip0_5651_629)">
<path d="M22.7668 11.5288L21.5433 12.1583V11.3883C21.5433 9.53525 21.0768 7.69575 20.0758 6.13425C17.2948 1.78975 11.5513 0.381751 7.08533 3.21675C6.29833 3.71825 6.85183 5.00825 7.77333 4.72625C9.71783 4.13075 11.6628 4.46475 13.1358 5.33375C14.9768 6.40625 16.2803 8.35925 16.2803 10.6978C16.2803 11.3393 16.2803 12.1538 16.2843 12.1578L15.0778 11.5328C14.2863 11.1263 13.4733 12.0503 13.9823 12.7823L18.2178 18.8748C18.2967 18.9877 18.4017 19.0799 18.5239 19.1436C18.6461 19.2073 18.7818 19.2406 18.9196 19.2406C19.0574 19.2406 19.1931 19.2073 19.3153 19.1436C19.4374 19.0799 19.5424 18.9877 19.6213 18.8748L23.8608 12.7783C24.3713 12.0423 23.5588 11.1183 22.7668 11.5288ZM16.2258 19.2748C14.2818 19.8703 12.3363 19.5363 10.8633 18.6668C9.02733 17.5973 7.71883 15.6468 7.71883 13.3028C7.71883 12.6608 7.71883 11.8468 7.71483 11.8428L8.92133 12.4678C9.71283 12.8743 10.5258 11.9498 10.0168 11.2188L5.78133 5.12625C5.70243 5.0133 5.59744 4.92107 5.47526 4.85738C5.35309 4.79369 5.21735 4.76044 5.07958 4.76044C4.9418 4.76044 4.80606 4.79369 4.68389 4.85738C4.56172 4.92107 4.45672 5.0133 4.37783 5.12625L0.137826 11.2228C-0.371174 11.9588 0.441826 12.8828 1.23333 12.4723L2.45683 11.8433C2.45683 13.8273 2.57433 15.7618 3.92433 17.8673C5.31033 20.0323 7.40683 21.4223 9.59333 21.9703C12.0953 22.6018 14.7043 22.1878 16.9148 20.7838C17.7018 20.2838 17.1478 18.9918 16.2258 19.2748Z" fill="#54BBFF"/>
</g>
<defs>
<clipPath id="clip0_5651_629">
<rect width="24" height="24" fill="white"/>
</clipPath>
</defs>
</svg>
