<svg width="28" height="28" viewBox="0 0 28 28" fill="none" xmlns="http://www.w3.org/2000/svg">
<g clip-path="url(#clip0_5351_3828)">
<path d="M27.9961 21.8492L27.9897 21.6659C27.9875 21.6045 27.9852 21.543 27.9829 21.4811L27.9812 21.4349L27.9803 21.4117L27.98 21.4059L27.9795 21.354L27.9793 21.3516L27.9785 21.342L27.9726 21.2651L27.9487 20.9566L27.9426 20.8787L27.9334 20.7776L27.9143 20.5761L27.8946 20.3757L27.8845 20.276L27.8723 20.1841C27.8387 19.9412 27.8087 19.7025 27.7659 19.4729C27.7457 19.3581 27.7271 19.2452 27.7061 19.1351L27.639 18.8135C27.5977 18.6043 27.5457 18.4089 27.502 18.2283L27.4691 18.0959L27.4342 17.9702C27.4112 17.8887 27.3893 17.8113 27.3688 17.7387C27.3478 17.6662 27.3294 17.5981 27.3101 17.5356L27.2556 17.3646L27.1943 17.1744C27.1827 17.1385 27.1577 17.1086 27.1244 17.0908C27.0912 17.0731 27.0524 17.069 27.0162 17.0794L22.2823 18.4284C22.2475 18.4383 22.2177 18.4608 22.1986 18.4915C22.1795 18.5222 22.1726 18.559 22.1792 18.5945L22.1968 18.6889L22.2191 18.8066C22.2268 18.8495 22.2329 18.8966 22.2406 18.9463L22.2648 19.105C22.269 19.1329 22.2739 19.1613 22.2778 19.1907L22.2881 19.2812C22.3012 19.4045 22.3209 19.5368 22.3297 19.6785L22.3477 19.8955C22.3523 19.9697 22.3546 20.0457 22.3585 20.1227C22.3688 20.2763 22.3668 20.4363 22.3698 20.5977L22.3704 20.6578L22.3683 20.711L22.3647 20.8176L22.3618 20.9242L22.3607 20.9775L22.3574 21.0542C22.3531 21.1574 22.3486 21.2605 22.3442 21.3634L22.3409 21.4404L22.3405 21.45L22.3404 21.4523C22.3405 21.4639 22.3395 21.3606 22.3398 21.4052L22.3394 21.409L22.338 21.4242L22.3352 21.4546L22.3243 21.5755L22.3138 21.6953C22.3091 21.7348 22.3044 21.7742 22.2997 21.8133C22.2897 21.8914 22.2835 21.9687 22.271 22.0441L22.2389 22.2662L22.2022 22.4774C22.1914 22.5461 22.177 22.6122 22.1641 22.6762C22.1507 22.7401 22.14 22.8022 22.126 22.8611C22.1071 22.9431 22.0881 23.0252 22.0691 23.1073L22.0518 23.1699L22.0422 23.2059H27.8319C27.9095 23.2059 27.9742 23.145 27.9771 23.0675L27.9772 23.0661L27.992 22.7344L27.9986 22.3883C28.0019 22.271 27.9983 22.1517 27.998 22.0311C27.9973 21.9708 27.9967 21.9102 27.9961 21.8492ZM26.4906 15.7724C26.509 15.765 26.5257 15.754 26.5397 15.7399C26.5536 15.7259 26.5646 15.7091 26.5718 15.6907C26.579 15.6722 26.5824 15.6525 26.5818 15.6327C26.5811 15.6129 26.5764 15.5934 26.5679 15.5755L26.5123 15.4581C26.4904 15.412 26.4684 15.3658 26.4466 15.3197L26.3465 15.1158C26.3105 15.0434 26.2722 14.9662 26.2317 14.8849C26.2112 14.8427 26.1911 14.8078 26.17 14.7681L26.1056 14.6491C26.0615 14.5683 26.0164 14.4837 25.9679 14.3971C25.9163 14.3087 25.8647 14.2202 25.8131 14.1318L25.7321 13.9937L25.6452 13.8545L25.4651 13.5685C25.3361 13.3784 25.2076 13.1795 25.0643 12.986C25.0291 12.9373 24.9937 12.8884 24.9583 12.8394L24.9049 12.7659L24.8494 12.6936L24.626 12.4044C24.5501 12.309 24.4716 12.2156 24.3946 12.1218C24.3557 12.0752 24.318 12.028 24.2783 11.9825L24.1592 11.8468C24.1196 11.8019 24.0802 11.7571 24.041 11.7126C24.0024 11.668 23.9627 11.6243 23.9221 11.5814L23.6846 11.3284C23.6065 11.2456 23.5256 11.1678 23.4487 11.0899C23.3711 11.0125 23.2958 10.9365 23.2189 10.8659L22.9972 10.6584C22.9259 10.5913 22.8532 10.5303 22.7854 10.4698L22.5892 10.2983L22.4077 10.1488L22.2481 10.0179C22.1987 9.97761 22.1515 9.94268 22.1098 9.91011C22.0589 9.87108 22.0081 9.83205 21.9572 9.79301C21.9274 9.77012 21.8898 9.75971 21.8524 9.76397C21.8151 9.76824 21.7808 9.78685 21.7569 9.81588L19.2161 12.8913C19.193 12.9193 19.1812 12.9548 19.1829 12.9911C19.1847 13.0273 19.2 13.0615 19.2258 13.087C19.247 13.108 19.2715 13.1323 19.2991 13.1596C19.3256 13.1862 19.3559 13.2143 19.3869 13.2471L19.4874 13.3534L19.6018 13.4736L19.724 13.6112C19.766 13.6596 19.812 13.7076 19.8558 13.7612L19.9924 13.9255C20.0402 13.9808 20.0858 14.0409 20.133 14.1016C20.1797 14.1628 20.2296 14.223 20.2766 14.2877L20.4195 14.4839C20.4442 14.5169 20.4679 14.5507 20.4906 14.5851L20.5607 14.6885C20.5843 14.7229 20.6079 14.7575 20.6316 14.7922C20.6552 14.8269 20.6769 14.8632 20.6997 14.8988C20.7446 14.9704 20.7911 15.0411 20.8352 15.1132L20.964 15.3316L20.9961 15.3858L21.0262 15.4411L21.0863 15.551C21.1686 15.6951 21.2382 15.8437 21.3109 15.9832L21.409 16.194L21.4566 16.2958L21.4996 16.3969C21.5281 16.4631 21.5557 16.5276 21.5825 16.5899L21.654 16.7726L21.6877 16.8584C21.6981 16.8857 21.7109 16.9152 21.7178 16.9379L21.7642 17.0735L21.8059 17.1919L21.8522 17.3303L21.8934 17.4536C21.8996 17.4724 21.9097 17.4897 21.9229 17.5045C21.9361 17.5193 21.9522 17.5312 21.9702 17.5395C21.9882 17.5478 22.0077 17.5523 22.0275 17.5528C22.0473 17.5533 22.067 17.5497 22.0854 17.5423L26.4906 15.7724ZM13.5522 10.2791L13.6796 10.2965L13.8289 10.3225L13.9983 10.3516C14.0501 10.3602 14.1037 10.3727 14.1595 10.3843L15.763 7.10446L15.5274 7.06768C15.4745 7.05981 15.4224 7.05076 15.3705 7.04427L15.2167 7.02565L14.9223 6.99066L14.6465 6.96702C14.5581 6.96024 14.4737 6.95131 14.393 6.94748L14.1641 6.93622L13.9632 6.92673L13.7925 6.92399L13.6091 6.92178C13.5715 6.92133 13.5351 6.9355 13.5078 6.96132C13.4804 6.98713 13.4641 7.02257 13.4623 7.06016L13.3161 10.1129C13.3143 10.1492 13.3262 10.1848 13.3494 10.2128C13.3726 10.2407 13.4054 10.2589 13.4414 10.2639L13.5522 10.2791ZM17.8618 11.9601C17.9049 11.9914 17.9457 12.0211 17.9841 12.0491L18.0918 12.1262C18.1062 12.1361 18.13 12.1541 18.1494 12.1686L18.2066 12.2113L18.3107 12.289C18.3266 12.3008 18.3447 12.3093 18.364 12.3138C18.3833 12.3184 18.4033 12.319 18.4228 12.3155C18.4423 12.3121 18.4609 12.3047 18.4774 12.2938C18.494 12.2829 18.5081 12.2687 18.519 12.2521L20.6125 9.06319C20.6234 9.04664 20.6308 9.02804 20.6342 9.00853C20.6377 8.98902 20.6371 8.96901 20.6325 8.94974C20.6279 8.93046 20.6194 8.91233 20.6075 8.89646C20.5957 8.88059 20.5807 8.86732 20.5635 8.85746L20.4508 8.79283L20.3889 8.75731L20.3149 8.71543L20.1221 8.6092C20.0532 8.57168 19.9799 8.53178 19.9027 8.48966C19.8255 8.45097 19.7483 8.41227 19.671 8.37356C19.59 8.33401 19.5073 8.29001 19.4186 8.25007L19.1453 8.12481C19.0521 8.08083 18.9538 8.04089 18.854 7.99898C18.7538 7.95796 18.653 7.9131 18.5477 7.87351L18.467 7.84298L17.5639 11.7629C17.6138 11.7943 17.6609 11.8275 17.7072 11.8575L17.8618 11.9601ZM10.7412 10.2631C10.7816 10.2578 10.8213 10.2512 10.861 10.247L10.9784 10.2351L11.203 10.2117L11.4135 10.1976L11.5123 10.1909C11.5444 10.1887 11.5766 10.186 11.6042 10.186L11.7657 10.1817L11.9071 10.1773L12.0552 10.1763L12.1852 10.1756C12.205 10.1755 12.2245 10.1713 12.2427 10.1633C12.2608 10.1554 12.2771 10.1438 12.2906 10.1293C12.3041 10.1148 12.3145 10.0977 12.3211 10.079C12.3278 10.0603 12.3305 10.0405 12.3292 10.0207L12.1407 7.14498C12.1394 7.12522 12.1341 7.10592 12.1251 7.08827C12.1161 7.07063 12.1036 7.05502 12.0883 7.0424C12.0731 7.02978 12.0554 7.02042 12.0364 7.01489C12.0173 7.00936 11.9974 7.00779 11.9777 7.01026L11.8488 7.02653L11.6988 7.04563L11.4901 7.07658L11.2533 7.11265C11.2106 7.11866 11.1713 7.12665 11.1301 7.13443L11.004 7.15851L10.7365 7.21021L10.4523 7.27493L10.3044 7.30895C10.2545 7.32062 10.2045 7.33488 10.1538 7.348L9.84398 7.43053L9.52693 7.52611C9.47353 7.54264 9.41956 7.55823 9.36592 7.57589L9.20479 7.63086L9.04268 7.68642C8.98845 7.70487 8.93413 7.7234 8.88055 7.74454L8.55743 7.86788C8.45006 7.90991 8.34445 7.95648 8.23861 8.00054C8.18586 8.02303 8.13295 8.04473 8.08081 8.0678L7.92599 8.13928L7.7727 8.21028C7.72185 8.2338 7.67122 8.25696 7.622 8.28252L7.32965 8.43012C7.23365 8.47825 7.14217 8.53136 7.0513 8.58026C6.96084 8.63007 6.87189 8.67758 6.78798 8.72878L6.54211 8.87464C6.46247 8.92109 6.38861 8.97126 6.31623 9.01659L6.10994 9.14884L5.92785 9.27381L5.76816 9.38377C5.71888 9.41775 5.67529 9.45144 5.63512 9.48056L5.49659 9.58284C5.4664 9.60514 5.44602 9.63829 5.43975 9.67531C5.43348 9.71232 5.4418 9.75033 5.46297 9.78134L6.65709 11.537C6.67753 11.5671 6.70856 11.5885 6.74402 11.5968C6.77948 11.6051 6.81677 11.5998 6.84849 11.5819L6.95554 11.5215C6.99117 11.5018 7.02972 11.4785 7.07326 11.4558C7.11676 11.4331 7.1638 11.4087 7.21405 11.3825L7.37371 11.299L7.55371 11.2127C7.61672 11.1834 7.68065 11.1497 7.74959 11.1204L7.96147 11.0274C8.03348 10.9943 8.10975 10.9653 8.18692 10.9343C8.26449 10.9043 8.34218 10.8703 8.42356 10.8415L8.67037 10.7526C8.71172 10.7369 8.75428 10.7236 8.79693 10.71L8.92523 10.6687L9.05427 10.6269C9.09765 10.6138 9.14166 10.602 9.18537 10.5894C9.27317 10.5651 9.36038 10.5381 9.4488 10.5156L9.71389 10.45C9.75763 10.4383 9.80201 10.4292 9.84619 10.4201L9.97809 10.3924L10.1086 10.3647C10.152 10.356 10.1957 10.3493 10.2388 10.3415L10.4936 10.2973L10.7412 10.2631ZM2.59884 12.533L2.50455 12.6664L2.40976 12.8008C2.3782 12.8458 2.34866 12.8925 2.31795 12.9384C2.25741 13.0308 2.19546 13.1226 2.13616 13.2161L1.96265 13.4986L1.91962 13.5689L1.87877 13.6404L1.7976 13.7825C1.68736 13.9697 1.5916 14.1612 1.49428 14.3429L1.3608 14.616L1.2966 14.7483L1.23769 14.8792L1.12518 15.1299L1.02707 15.367C0.996238 15.4432 0.965084 15.5153 0.938528 15.5853L0.864049 15.7843L0.798853 15.9591L0.747746 16.1089L0.696432 16.2613C0.684464 16.2968 0.686709 16.3356 0.702697 16.3695C0.718686 16.4034 0.747176 16.4298 0.7822 16.4432L1.89365 16.8693C1.96439 16.8964 2.04405 16.8647 2.07674 16.7964L2.13457 16.6755L2.19567 16.5484L2.27218 16.4009C2.29941 16.3484 2.32836 16.2925 2.35889 16.2335C2.38966 16.1748 2.42509 16.1145 2.46025 16.0508L2.57137 15.8532L2.69669 15.6456L2.76183 15.5375C2.78496 15.5017 2.80839 15.4655 2.83206 15.4288L2.97695 15.2051C3.08147 15.0571 3.18368 14.9013 3.29919 14.751L3.38413 14.6367L3.42672 14.5793L3.47134 14.5232L3.65007 14.2982C3.71082 14.2241 3.77386 14.1518 3.83514 14.079C3.8662 14.0428 3.89603 14.0059 3.92783 13.9708L4.02297 13.8658L4.11714 13.7617C4.14777 13.727 4.17933 13.6932 4.21178 13.6602L4.40074 13.4645C4.46266 13.4003 4.5273 13.3408 4.58831 13.2806C4.64979 13.2209 4.70927 13.1619 4.77051 13.1079L4.94606 12.9481C5.00229 12.8962 5.06024 12.8499 5.11376 12.8034L5.26838 12.6717C5.3166 12.6335 5.36234 12.5973 5.40531 12.5633C5.44523 12.5315 5.48514 12.4997 5.52504 12.4679C5.54201 12.4539 5.565 12.4371 5.58443 12.4223L5.6414 12.3794L5.74509 12.3011C5.7609 12.2892 5.7741 12.2741 5.78387 12.2569C5.79365 12.2397 5.79979 12.2206 5.80193 12.2009C5.80407 12.1812 5.80215 12.1613 5.7963 12.1424C5.79045 12.1234 5.78078 12.1059 5.7679 12.0909L4.50245 10.6084C4.48961 10.5933 4.47381 10.581 4.45604 10.5722C4.43827 10.5635 4.41889 10.5585 4.39911 10.5575C4.37932 10.5565 4.35954 10.5596 4.34099 10.5665C4.32244 10.5735 4.30551 10.5842 4.29124 10.5979L4.19769 10.688L4.14629 10.7375C4.12799 10.7553 4.11057 10.7715 4.08787 10.7947L3.94746 10.9364L3.78854 11.0976L3.62475 11.275C3.5684 11.3373 3.50763 11.4 3.44883 11.4688L3.26603 11.6807C3.20251 11.7526 3.14106 11.8298 3.07784 11.9081C3.01509 11.9868 2.94895 12.0654 2.88585 12.1486C2.82292 12.2318 2.75897 12.3165 2.69424 12.4022C2.66136 12.445 2.62955 12.4886 2.59884 12.533ZM0.299305 17.7307L0.273427 17.8581C0.263497 17.907 0.253565 17.9559 0.243629 18.0047C0.232989 18.0593 0.222585 18.1238 0.210972 18.1896L0.174602 18.4012C0.168412 18.4383 0.161339 18.4767 0.155473 18.5154L0.139499 18.6333C0.118749 18.794 0.0914272 18.9669 0.0756883 19.1517L0.0475999 19.4349C0.039701 19.5317 0.0344252 19.6307 0.0276168 19.7312C0.011701 19.9319 0.00878314 20.1401 0.00215157 20.3508L0 20.4299L0.000383157 20.5094C0.000994898 20.6159 0.00160402 20.7224 0.00221052 20.829L0.00271157 20.909L0.00577683 20.9892L0.0187747 21.3087L0.0220463 21.3881L0.0230484 21.4138L0.0244631 21.433L0.0272926 21.4713L0.0385515 21.624L0.049722 21.7754L0.0649304 21.9319L0.0801388 22.0863L0.087743 22.1626L0.0971745 22.2372L0.134164 22.5281L0.176871 22.8055C0.18984 22.8956 0.206551 22.9828 0.221907 23.067L0.22568 23.0871C0.231851 23.1205 0.249517 23.1506 0.275609 23.1724C0.301701 23.1941 0.33457 23.2059 0.368509 23.2059H0.760243C0.780049 23.2059 0.799648 23.2019 0.817834 23.194C0.83602 23.1862 0.85241 23.1747 0.865999 23.1603C0.879587 23.1459 0.890086 23.1289 0.896852 23.1102C0.903617 23.0916 0.906506 23.0718 0.905341 23.052C0.904015 23.0298 0.902659 23.0072 0.901156 22.9845C0.896263 22.9033 0.890369 22.8195 0.888482 22.7331L0.879788 22.4675C0.879063 22.3516 0.878356 22.2356 0.877665 22.1196L0.879228 22.0493L0.882352 21.9075L0.885505 21.7641L0.892579 21.6124L0.899682 21.4595L0.90148 21.4211L0.902364 21.4019L0.902482 21.3995C0.902482 21.3934 0.9026 21.4051 0.902659 21.4031L0.903013 21.3985L0.90375 21.3892L0.909703 21.3148L0.933488 21.0167L0.93956 20.9422L0.948137 20.8679L0.965232 20.7197L0.982179 20.5723L0.990579 20.499L1.00145 20.4261C1.03128 20.2325 1.05663 20.042 1.09377 19.8596C1.11118 19.7682 1.12678 19.6783 1.14467 19.5908L1.20173 19.3354C1.23604 19.1692 1.28051 19.0146 1.3167 18.8713L1.34394 18.7663C1.35331 18.7327 1.36342 18.7008 1.37273 18.6692L1.42608 18.4906C1.44321 18.4341 1.45726 18.3835 1.47365 18.3328L1.52084 18.1907L1.56178 18.0673C1.56801 18.0485 1.57034 18.0287 1.5686 18.0089C1.56687 17.9892 1.56111 17.97 1.55169 17.9526C1.54227 17.9352 1.52938 17.9199 1.51382 17.9076C1.49826 17.8954 1.48036 17.8864 1.46121 17.8813L0.479182 17.6195C0.460045 17.6143 0.440058 17.6132 0.420454 17.616C0.400849 17.6189 0.382042 17.6258 0.36519 17.6362C0.348338 17.6466 0.333799 17.6604 0.322468 17.6767C0.311137 17.6929 0.303254 17.7113 0.299305 17.7307ZM11.4156 22.8208C11.7351 22.9769 12.0736 23.051 12.4068 23.051C13.2432 23.051 14.047 22.585 14.4391 21.7829C14.5146 21.6286 14.573 21.4581 14.611 21.2976L16.8975 11.3733L17.7683 7.59384L18.3077 5.25254C18.3705 4.98006 18.1538 4.79443 17.9363 4.79443C17.809 4.79443 17.6815 4.85807 17.6095 5.00511L16.5118 7.2505L14.8924 10.5629L10.3778 19.7973C9.82948 20.9188 10.2942 22.2725 11.4156 22.8208ZM12.4906 19.6248C13.1024 19.6248 13.5985 20.1208 13.5985 20.7327C13.5985 21.3445 13.1024 21.8405 12.4906 21.8405C11.8788 21.8405 11.3827 21.3445 11.3827 20.7327C11.3827 20.1207 11.8788 19.6248 12.4906 19.6248Z" fill="#3289FF"/>
</g>
<defs>
<clipPath id="clip0_5351_3828">
<rect width="28" height="28" fill="white"/>
</clipPath>
</defs>
</svg>
