<svg width="17" height="20" viewBox="0 0 17 20" fill="none" xmlns="http://www.w3.org/2000/svg">
<g clip-path="url(#clip0_5487_1990)">
<path d="M8.51548 6.1897C6.4142 6.1897 4.70474 7.89915 4.70474 10.0002C4.70474 12.1016 6.4142 13.811 8.51548 13.811C10.6167 13.811 12.326 12.1016 12.326 10.0003C12.326 7.89911 10.6167 6.1897 8.51548 6.1897ZM10.7779 9.28267L8.04795 12.0126C7.9935 12.0672 7.92881 12.1105 7.85758 12.14C7.78636 12.1695 7.71 12.1847 7.63291 12.1846C7.55583 12.1847 7.4795 12.1695 7.4083 12.14C7.33711 12.1105 7.27245 12.0672 7.21806 12.0126L6.17478 10.9693C5.9456 10.7403 5.9456 10.3688 6.17478 10.1396C6.40381 9.9104 6.77537 9.9104 7.00455 10.1396L7.63291 10.7679L9.94814 8.4529C10.1772 8.22368 10.5487 8.22368 10.7779 8.4529C11.0071 8.68192 11.0071 9.05349 10.7779 9.28267Z" fill="#3289FF"/>
<path d="M17.0112 5.4265L17.0107 5.41096C17.0016 5.2039 16.9956 4.99671 16.9926 4.78947C16.9763 3.6867 16.0997 2.77452 14.9968 2.71291C12.6973 2.58456 10.9184 1.83475 9.39852 0.353271L9.38555 0.340927C8.88977 -0.113642 8.14196 -0.113642 7.64602 0.340927L7.63306 0.353271C6.11314 1.83475 4.33427 2.58456 2.03478 2.71303C0.932052 2.77452 0.0552569 3.68674 0.0389288 4.78959C0.0360629 4.99679 0.0300727 5.20394 0.0209601 5.41096L0.0200226 5.44709C-0.0247039 7.79193 -0.0802507 10.7102 0.895997 13.3589C1.43283 14.8155 2.2458 16.0817 3.31224 17.1225C4.52685 18.3078 6.11771 19.2488 8.04063 19.9193C8.10393 19.9413 8.16867 19.9589 8.23438 19.9721C8.32778 19.9907 8.4218 20 8.51579 20C8.60977 20 8.70391 19.9907 8.79715 19.9721C8.86314 19.9588 8.92814 19.9411 8.99168 19.9189C10.9123 19.2473 12.5015 18.3058 13.715 17.1207C14.781 16.0796 15.594 14.8131 16.1313 13.3562C17.1112 10.6995 17.0558 7.77572 17.0112 5.4265ZM8.51548 14.9846C5.76704 14.9846 3.53119 12.7487 3.53119 10.0003C3.53119 7.25189 5.76708 5.01604 8.51548 5.01604C11.2638 5.01604 13.4998 7.25189 13.4998 10.0003C13.4998 12.7488 11.2638 14.9846 8.51548 14.9846Z" fill="#3289FF"/>
</g>
<defs>
<clipPath id="clip0_5487_1990">
<rect width="17" height="20" fill="white"/>
</clipPath>
</defs>
</svg>
