<svg width="20" height="20" viewBox="0 0 20 20" fill="none" xmlns="http://www.w3.org/2000/svg">
<path d="M14.6649 6.63584L15.4425 5.85836C15.6867 5.61419 15.6867 5.21833 15.4425 4.97416C15.1983 4.73 14.8025 4.73 14.5583 4.97416L13.7433 5.78918C12.5866 4.90585 11.1475 4.375 9.58334 4.375C5.79251 4.375 2.70834 7.45917 2.70834 11.25C2.70834 15.0408 5.79251 18.125 9.58334 18.125C13.3742 18.125 16.4583 15.0408 16.4583 11.25C16.4583 9.47333 15.7749 7.85751 14.6649 6.63584ZM9.58334 16.875C6.48168 16.875 3.95834 14.3517 3.95834 11.25C3.95834 8.14833 6.48168 5.625 9.58334 5.625C12.685 5.625 15.2083 8.14833 15.2083 11.25C15.2083 14.3517 12.685 16.875 9.58334 16.875ZM11.625 12C11.9008 12.2075 11.9568 12.5991 11.7493 12.875C11.6276 13.0383 11.4392 13.125 11.2484 13.125C11.1184 13.125 10.9867 13.0841 10.8742 13L9.20757 11.75C9.0509 11.6316 8.95753 11.4467 8.95753 11.25V8.33333C8.95753 7.98833 9.23753 7.70833 9.58253 7.70833C9.92753 7.70833 10.2075 7.98833 10.2075 8.33333V10.9375L11.625 12ZM6.87501 2.5C6.87501 2.155 7.15501 1.875 7.50001 1.875H11.6667C12.0117 1.875 12.2917 2.155 12.2917 2.5C12.2917 2.845 12.0117 3.125 11.6667 3.125H7.50001C7.15501 3.125 6.87501 2.845 6.87501 2.5Z" fill="#25314C"/>
</svg>
