<svg width="17" height="18" viewBox="0 0 17 18" fill="none" xmlns="http://www.w3.org/2000/svg">
<path d="M4.04157 1.5C4.04157 1.155 4.32157 0.875 4.66657 0.875H8.83323C9.17823 0.875 9.45823 1.155 9.45823 1.5C9.45823 1.845 9.17823 2.125 8.83323 2.125H4.66657C4.32157 2.125 4.04157 1.845 4.04157 1.5ZM8.41657 13.1667V14.8333C8.41657 15.2467 8.46078 15.6325 8.54494 15.9825C8.57661 16.115 8.50409 16.2491 8.37242 16.285C7.72992 16.4583 7.05654 16.5325 6.3432 16.4867C3.47654 16.305 1.02819 14.1025 0.579857 11.265C-0.0351434 7.36585 2.96657 3.99919 6.7499 3.99919C8.14323 3.99919 9.42818 4.45919 10.4673 5.23169L11.7249 3.97416C11.9665 3.7325 12.3666 3.7325 12.6083 3.97416C12.8499 4.21583 12.8499 4.61588 12.6083 4.85754L11.3916 6.07418C12.1475 6.91501 12.6833 7.95912 12.8949 9.11912C12.9233 9.27245 12.7983 9.41585 12.6424 9.41585H12.1666C10.0957 9.41669 8.41657 11.0958 8.41657 13.1667ZM7.3749 7.33333C7.3749 6.98833 7.0949 6.70833 6.7499 6.70833C6.4049 6.70833 6.1249 6.98833 6.1249 7.33333V10.25C6.1249 10.595 6.4049 10.875 6.7499 10.875C7.0949 10.875 7.3749 10.595 7.3749 10.25V7.33333ZM16.3332 13.1667V14.8333C16.3332 16.5 15.4999 17.3333 13.8332 17.3333H12.1666C10.4999 17.3333 9.66657 16.5 9.66657 14.8333V13.1667C9.66657 11.5 10.4999 10.6667 12.1666 10.6667H13.8332C15.4999 10.6667 16.3332 11.5 16.3332 13.1667ZM14.3366 13.0108C14.1741 12.8483 13.9099 12.8483 13.7474 13.0108L12.6532 14.105L12.2541 13.705C12.0916 13.5425 11.8274 13.5425 11.6649 13.705C11.5024 13.8675 11.5024 14.1317 11.6649 14.2942L12.359 14.9884C12.4374 15.0667 12.5432 15.11 12.654 15.11C12.7649 15.11 12.8707 15.0659 12.949 14.9884L14.3382 13.5992C14.499 13.4375 14.4991 13.1733 14.3366 13.0108Z" fill="#3289FF"/>
</svg>
