<svg width="12" height="12" viewBox="0 0 12 12" fill="none" xmlns="http://www.w3.org/2000/svg">
<path d="M7.17838 6.00002L11.5892 1.58916C11.915 1.26416 11.915 0.735879 11.5892 0.410879C11.2634 0.0850456 10.7367 0.0850456 10.4109 0.410879L6.00005 4.82169L1.58921 0.410879C1.26338 0.0850456 0.736712 0.0850456 0.410879 0.410879C0.0850456 0.735879 0.0850456 1.26416 0.410879 1.58916L4.82171 6.00002L0.410879 10.4109C0.0850456 10.7359 0.0850456 11.2642 0.410879 11.5892C0.573379 11.7517 0.786713 11.8334 1.00005 11.8334C1.21338 11.8334 1.42671 11.7517 1.58921 11.5892L6.00005 7.17835L10.4109 11.5892C10.5734 11.7517 10.7867 11.8334 11 11.8334C11.2134 11.8334 11.4267 11.7517 11.5892 11.5892C11.915 11.2642 11.915 10.7359 11.5892 10.4109L7.17838 6.00002Z" fill="#EB3D4D"/>
</svg>
