<svg width="20" height="20" viewBox="0 0 20 20" fill="none" xmlns="http://www.w3.org/2000/svg">
<path d="M11.8853 10L18.9426 2.94264C19.4639 2.42264 19.4639 1.57738 18.9426 1.05738C18.4213 0.536048 17.5786 0.536048 17.0573 1.05738L9.99993 8.11467L2.9426 1.05738C2.42126 0.536048 1.57859 0.536048 1.05726 1.05738C0.535926 1.57738 0.535926 2.42264 1.05726 2.94264L8.11459 10L1.05726 17.0574C0.535926 17.5774 0.535926 18.4226 1.05726 18.9426C1.31726 19.2026 1.65859 19.3333 1.99993 19.3333C2.34126 19.3333 2.6826 19.2026 2.9426 18.9426L9.99993 11.8853L17.0573 18.9426C17.3173 19.2026 17.6586 19.3333 17.9999 19.3333C18.3413 19.3333 18.6826 19.2026 18.9426 18.9426C19.4639 18.4226 19.4639 17.5774 18.9426 17.0574L11.8853 10Z" fill="#25314C"/>
</svg>
