<svg width="48" height="48" viewBox="0 0 48 48" fill="none" xmlns="http://www.w3.org/2000/svg">
<path d="M24 48C37.2548 48 48 37.2548 48 24C48 10.7452 37.2548 0 24 0C10.7452 0 0 10.7452 0 24C0 37.2548 10.7452 48 24 48Z" fill="#29A71A"/>
<path d="M34.5818 13.4182C32.0848 10.8962 28.7688 9.34964 25.2319 9.05731C21.695 8.76498 18.1701 9.74618 15.2929 11.8239C12.4158 13.9016 10.3758 16.9391 9.54095 20.3885C8.7061 23.8379 9.13136 27.472 10.74 30.6354L9.16092 38.3018C9.14454 38.3781 9.14407 38.457 9.15956 38.5335C9.17504 38.6099 9.20615 38.6824 9.25092 38.7463C9.31651 38.8434 9.41014 38.918 9.5193 38.9604C9.62846 39.0028 9.74795 39.0109 9.86183 38.9836L17.3755 37.2027C20.53 38.7706 24.1385 39.1685 27.5589 38.3256C30.9793 37.4827 33.9897 35.4537 36.0544 32.5995C38.1192 29.7454 39.1044 26.2512 38.8348 22.7389C38.5651 19.2265 37.0581 15.9237 34.5818 13.4182ZM32.2391 32.1163C30.5114 33.8392 28.2867 34.9764 25.8785 35.3678C23.4702 35.7593 20.9998 35.3851 18.8155 34.2982L17.7682 33.78L13.1618 34.8709L13.1755 34.8136L14.13 30.1772L13.6173 29.1654C12.5012 26.9734 12.1075 24.4845 12.4925 22.055C12.8776 19.6256 14.0217 17.3803 15.7609 15.6409C17.9463 13.4562 20.9099 12.2289 24 12.2289C27.0901 12.2289 30.0537 13.4562 32.2391 15.6409C32.2577 15.6622 32.2778 15.6823 32.2991 15.7009C34.4574 17.8912 35.6623 20.846 35.651 23.921C35.6398 26.996 34.4133 29.9418 32.2391 32.1163Z" fill="white"/>
<path d="M31.8301 28.7154C31.2655 29.6045 30.3737 30.6927 29.2528 30.9627C27.2892 31.4372 24.2755 30.979 20.5255 27.4827L20.4792 27.4418C17.1819 24.3845 16.3255 21.84 16.5328 19.8218C16.6473 18.6763 17.6019 17.64 18.4064 16.9636C18.5336 16.855 18.6845 16.7777 18.8469 16.7379C19.0093 16.6981 19.1788 16.6968 19.3418 16.7341C19.5047 16.7715 19.6567 16.8465 19.7856 16.9531C19.9144 17.0597 20.0165 17.195 20.0837 17.3481L21.2973 20.0754C21.3762 20.2522 21.4054 20.4472 21.3819 20.6394C21.3583 20.8316 21.2829 21.0137 21.1637 21.1663L20.5501 21.9627C20.4184 22.1271 20.3389 22.3272 20.3219 22.5372C20.3049 22.7471 20.3511 22.9574 20.4546 23.1409C20.7982 23.7436 21.6219 24.63 22.5355 25.4509C23.561 26.3781 24.6982 27.2263 25.4182 27.5154C25.6109 27.5941 25.8227 27.6133 26.0264 27.5705C26.2301 27.5278 26.4163 27.425 26.561 27.2754L27.2728 26.5581C27.4101 26.4227 27.5809 26.3261 27.7678 26.2782C27.9546 26.2303 28.1509 26.2328 28.3364 26.2854L31.2192 27.1036C31.3782 27.1524 31.5239 27.2369 31.6453 27.3506C31.7666 27.4644 31.8604 27.6044 31.9193 27.7599C31.9783 27.9154 32.0009 28.0824 31.9854 28.248C31.9699 28.4136 31.9168 28.5735 31.8301 28.7154Z" fill="white"/>
</svg>
