<svg width="25" height="24" viewBox="0 0 25 24" fill="none" xmlns="http://www.w3.org/2000/svg">
<g clip-path="url(#clip0_5548_9832)">
<path d="M12.3333 24C18.9607 24 24.3333 18.6274 24.3333 12C24.3333 5.37258 18.9607 0 12.3333 0C5.70583 0 0.333252 5.37258 0.333252 12C0.333252 18.6274 5.70583 24 12.3333 24Z" fill="#29A71A"/>
<path d="M17.624 6.70914C16.3755 5.44818 14.7175 4.67488 12.9491 4.52872C11.1807 4.38255 9.41819 4.87315 7.9796 5.91202C6.54102 6.95088 5.52103 8.46963 5.1036 10.1943C4.68618 11.919 4.89881 13.7361 5.70314 15.3178L4.91359 19.151C4.9054 19.1891 4.90517 19.2285 4.91291 19.2668C4.92065 19.305 4.9362 19.3413 4.95859 19.3732C4.99139 19.4217 5.0382 19.4591 5.09278 19.4803C5.14736 19.5015 5.20711 19.5055 5.26404 19.4919L9.02086 18.6014C10.5981 19.3854 12.4024 19.5843 14.1126 19.1629C15.8228 18.7414 17.328 17.7269 18.3603 16.2998C19.3927 14.8727 19.8853 13.1257 19.7505 11.3695C19.6157 9.6133 18.8622 7.96191 17.624 6.70914ZM16.4527 16.0582C15.5888 16.9196 14.4765 17.4883 13.2724 17.684C12.0682 17.8797 10.833 17.6926 9.74086 17.1491L9.21723 16.89L6.91404 17.4355L6.92086 17.4069L7.39814 15.0887L7.14177 14.5828C6.58372 13.4868 6.38686 12.2423 6.57939 11.0276C6.77192 9.81284 7.34397 8.69021 8.21359 7.8205C9.30628 6.72815 10.7881 6.11451 12.3331 6.11451C13.8782 6.11451 15.36 6.72815 16.4527 7.8205C16.462 7.83118 16.472 7.8412 16.4827 7.8505C17.5618 8.94567 18.1643 10.423 18.1586 11.9605C18.153 13.498 17.5398 14.971 16.4527 16.0582Z" fill="white"/>
<path d="M16.2482 14.3578C15.9659 14.8024 15.52 15.3465 14.9595 15.4815C13.9777 15.7187 12.4709 15.4896 10.5959 13.7415L10.5727 13.721C8.92407 12.1924 8.49589 10.9201 8.59952 9.91101C8.6568 9.33828 9.13407 8.8201 9.53634 8.48192C9.59994 8.42764 9.67536 8.38899 9.75656 8.36907C9.83777 8.34915 9.92251 8.34851 10.004 8.36719C10.0855 8.38588 10.1615 8.42337 10.2259 8.47668C10.2903 8.52999 10.3414 8.59763 10.375 8.67419L10.9818 10.0378C11.0212 10.1262 11.0358 10.2237 11.0241 10.3198C11.0123 10.4159 10.9746 10.507 10.915 10.5833L10.6082 10.9815C10.5423 11.0637 10.5026 11.1637 10.4941 11.2687C10.4856 11.3737 10.5087 11.4788 10.5604 11.5706C10.7323 11.8719 11.1441 12.3151 11.6009 12.7256C12.1136 13.1892 12.6823 13.6133 13.0423 13.7578C13.1386 13.7972 13.2445 13.8068 13.3463 13.7854C13.4482 13.764 13.5413 13.7126 13.6136 13.6378L13.9695 13.2792C14.0382 13.2115 14.1236 13.1632 14.217 13.1392C14.3105 13.1153 14.4086 13.1165 14.5013 13.1428L15.9427 13.5519C16.0222 13.5763 16.0951 13.6186 16.1558 13.6754C16.2164 13.7323 16.2633 13.8023 16.2928 13.8801C16.3223 13.9578 16.3336 14.0413 16.3258 14.1241C16.3181 14.2069 16.2915 14.2869 16.2482 14.3578Z" fill="white"/>
</g>
<defs>
<clipPath id="clip0_5548_9832">
<rect width="24" height="24" fill="white" transform="translate(0.333252)"/>
</clipPath>
</defs>
</svg>
