<svg width="24" height="25" viewBox="0 0 24 25" fill="none" xmlns="http://www.w3.org/2000/svg">
<path d="M12 24.3501C18.6274 24.3501 24 18.9775 24 12.3501C24 5.72268 18.6274 0.350098 12 0.350098C5.37258 0.350098 0 5.72268 0 12.3501C0 18.9775 5.37258 24.3501 12 24.3501Z" fill="#29A71A"/>
<path d="M17.2908 7.05875C16.0423 5.79779 14.3843 5.02449 12.6158 4.87833C10.8474 4.73216 9.08493 5.22276 7.64635 6.26162C6.20777 7.30049 5.18778 8.81924 4.77035 10.5439C4.35293 12.2686 4.56556 14.0857 5.36988 15.6674L4.58034 19.5006C4.57215 19.5387 4.57191 19.5782 4.57966 19.6164C4.5874 19.6546 4.60295 19.6909 4.62534 19.7228C4.65813 19.7713 4.70495 19.8087 4.75953 19.8299C4.81411 19.8511 4.87385 19.8551 4.93079 19.8415L8.68761 18.951C10.2649 19.735 12.0691 19.9339 13.7793 19.5125C15.4895 19.091 16.9947 18.0765 18.0271 16.6494C19.0595 15.2224 19.5521 13.4753 19.4173 11.7191C19.2824 9.96291 18.5289 8.31151 17.2908 7.05875ZM16.1194 16.4078C15.2556 17.2692 14.1432 17.8379 12.9391 18.0336C11.735 18.2293 10.4998 18.0422 9.40761 17.4987L8.88397 17.2397L6.58079 17.7851L6.58761 17.7565L7.06488 15.4383L6.80852 14.9324C6.25047 13.8364 6.0536 12.5919 6.24614 11.3772C6.43867 10.1624 7.01072 9.03982 7.88034 8.17011C8.97303 7.07776 10.4548 6.46412 11.9999 6.46412C13.5449 6.46412 15.0267 7.07776 16.1194 8.17011C16.1287 8.18078 16.1388 8.19081 16.1494 8.20011C17.2286 9.29528 17.831 10.7727 17.8254 12.3102C17.8198 13.8477 17.2065 15.3206 16.1194 16.4078Z" fill="white"/>
<path d="M15.9152 14.7078C15.6329 15.1523 15.187 15.6964 14.6265 15.8314C13.6447 16.0687 12.1379 15.8396 10.2629 14.0914L10.2397 14.071C8.59106 12.5423 8.16288 11.2701 8.26652 10.261C8.32379 9.68826 8.80106 9.17007 9.20333 8.83189C9.26693 8.77761 9.34235 8.73897 9.42356 8.71905C9.50476 8.69912 9.5895 8.69848 9.671 8.71717C9.7525 8.73585 9.82849 8.77335 9.89291 8.82665C9.95732 8.87996 10.0084 8.9476 10.042 9.02417L10.6488 10.3878C10.6882 10.4762 10.7028 10.5737 10.6911 10.6698C10.6793 10.7659 10.6416 10.857 10.582 10.9333L10.2752 11.3314C10.2093 11.4137 10.1696 11.5137 10.1611 11.6187C10.1526 11.7237 10.1757 11.8288 10.2274 11.9205C10.3992 12.2219 10.8111 12.6651 11.2679 13.0755C11.7806 13.5392 12.3492 13.9633 12.7092 14.1078C12.8056 14.1472 12.9115 14.1568 13.0133 14.1354C13.1152 14.114 13.2083 14.0626 13.2806 13.9878L13.6365 13.6292C13.7052 13.5614 13.7906 13.5131 13.884 13.4892C13.9774 13.4652 14.0755 13.4665 14.1683 13.4928L15.6097 13.9019C15.6892 13.9263 15.7621 13.9685 15.8228 14.0254C15.8834 14.0823 15.9303 14.1523 15.9598 14.23C15.9893 14.3078 16.0006 14.3913 15.9928 14.4741C15.9851 14.5569 15.9585 14.6368 15.9152 14.7078Z" fill="white"/>
</svg>
