<svg class="svg logo__svg" width="160" height="50"   xmlns="http://www.w3.org/2000/svg" fill="none" viewBox="0 0 83 42">
    <path class="logo__svg-item" fill="#0CCE5A"
        d="M24.7 4.255a.943.943 0 00.917.756c.063 0 .127 0 .19-.031l6.795-1.387a.93.93 0 00.727-1.135.943.943 0 00-.917-.756c-.063 0-.126 0-.19.031l-6.794 1.419c-.506.094-.854.599-.727 1.103zm15.33 4.003a.943.943 0 00-.917-.757c-.063 0-.127 0-.19.032l-6.795 1.386a.93.93 0 00-.727 1.135.943.943 0 00.917.756c.063 0 .126 0 .19-.031l6.794-1.387c.474-.126.822-.63.727-1.134zM14.681 11a.535.535 0 00-.316-.095c-.158 0-.348.063-.443.22l-1.232 1.734a.536.536 0 00.126.725c.095.063.19.095.316.095.158 0 .348-.064.443-.221l1.232-1.734c.19-.22.127-.567-.126-.725zm-3.54 1.67l-.948-1.418-1.58-2.333a.72.72 0 00-.601-.315.608.608 0 00-.38.126c-.315.22-.41.63-.189.946l.948 1.418 1.58 2.332a.72.72 0 00.601.316.608.608 0 00.38-.127c.315-.189.41-.63.189-.945zm20.923 4.854c-.063 0-.095 0-.158.031l-5.974 1.198c-.442.094-.727.535-.663.977.094.41.442.662.821.662.063 0 .095 0 .158-.032l5.974-1.197c.442-.095.727-.536.663-.978-.063-.41-.41-.661-.821-.661zm-20.133-3.247h-.063c-.664 0-1.233.536-1.264 1.198a1.268 1.268 0 001.2 1.324h.064c.664 0 1.232-.536 1.264-1.198a1.267 1.267 0 00-1.201-1.324zm23.42-1.576c-.063 0-.127 0-.19.032l-4.93.977c-.064 0-.127 0-.19.031l-6.068 1.23a12.327 12.327 0 00-1.201-5.484l6.131-1.23a.93.93 0 00.727-1.134.943.943 0 00-.916-.757c-.064 0-.127 0-.19.032L21.73 7.753a11.93 11.93 0 00-5.184-4.129l1.707-.346 6.858-1.387a.93.93 0 00.727-1.135C25.776.316 25.364 0 24.922 0c-.063 0-.127 0-.19.032l-6.51 1.323-6.796 1.387C5.326 2.994.333 7.879.016 14.12-.33 20.77 4.79 26.41 11.396 26.758h.6c1.928 0 3.761-.473 5.373-1.292l6.7-1.355c.064 0 .095-.032.127-.032l3.603-.693a.93.93 0 00.727-1.135.943.943 0 00-.917-.756c-.063 0-.126 0-.19.031l-6.573 1.324c1.485-1.639 2.497-3.656 2.94-5.925l4.74-.946c.063 0 .126 0 .19-.031l6.795-1.387a.93.93 0 00.727-1.135c-.032-.44-.443-.725-.885-.725zm-12.958 2.553c-.19 3.499-2.023 6.493-4.71 8.258-.158.094-.822.473-1.359.756a10.436 10.436 0 01-4.298.946h-.537c-2.782-.126-5.342-1.355-7.207-3.436a10.507 10.507 0 01-2.686-7.532 10.395 10.395 0 0110.398-9.96h.538c2.78.126 5.34 1.356 7.206 3.436a10.62 10.62 0 012.654 7.532z"></path>
    <path class="logo__svg-item" fill="#0CCE5A"
        d="M13.259 23.323a9.166 9.166 0 01-9.166-9.172A9.13 9.13 0 018.55 6.303a9.143 9.143 0 00-5.72 8.479 9.166 9.166 0 009.165 9.171c1.738 0 3.35-.473 4.74-1.324a9.122 9.122 0 01-3.476.694z"></path>
    <path class="logo__svg-item" fill="#2B335C"
        d="M41.831 19.73l5.089-.63.19-2.585-5.12.63.189-2.615 5.784-.725.19-2.585-9.072 1.135-.853 11.85 3.287-.41.316-4.065zm8.692 2.93l1.043-2.426 4.93-.63.759 2.174 3.255-.41-4.267-11.156-3.224.41-5.973 12.48 3.477-.441zm3.919-9.013l1.264 3.656-3.003.378 1.739-4.034zm15.708.977a3.73 3.73 0 00-1.39-.756 16.751 16.751 0 00-1.929-.347c-.695-.095-1.2-.19-1.549-.315-.347-.126-.537-.315-.569-.6-.031-.314.095-.63.443-.881.348-.253.853-.41 1.485-.505a7.717 7.717 0 011.707 0c.57.095 1.106.22 1.58.473l.885-2.584c-.569-.253-1.2-.41-1.96-.505-.726-.094-1.516-.063-2.338.032-1.138.157-2.086.441-2.876.882s-1.39 1.009-1.77 1.702c-.38.694-.506 1.418-.41 2.27.094.693.347 1.197.758 1.575.41.379.885.63 1.39.757.538.126 1.17.252 1.96.378.695.094 1.2.189 1.517.315.348.126.506.315.569.599.031.315-.095.599-.411.82-.316.22-.79.377-1.422.472-.664.095-1.328.063-2.023-.031-.695-.095-1.36-.316-1.991-.6l-.98 2.617c.6.283 1.328.504 2.212.63.885.126 1.802.126 2.782 0 1.106-.126 2.086-.441 2.876-.882.79-.442 1.39-1.009 1.77-1.702.379-.694.506-1.419.41-2.238-.094-.693-.315-1.23-.726-1.576zm1.612-6.366l-.19 2.647 3.571-.441-.663 9.203 3.255-.442.664-9.203 3.54-.44.22-2.648-10.397 1.324zm-55.974 33.66l3.477-.441.284-4.287 5.405-.693.19-2.742-5.405.693.19-2.742 6.13-.788.19-2.742-9.608 1.23-.853 12.512zm19.627-8.1c-.063 1.04-.316 1.828-.664 2.332-.379.505-.916.788-1.643.883-1.36.189-2.118-.379-2.276-1.67-.031-.284-.031-.631-.031-.978l.474-6.902-3.477.441-.474 6.934c-.032.504-.032.946.032 1.324.126.882.41 1.639.916 2.269a4.048 4.048 0 001.96 1.292c.822.252 1.77.315 2.813.19 3.571-.473 5.5-2.585 5.784-6.367l.474-7.092-3.414.442-.474 6.902zm14.033-1.86l-4.93-6.145-2.845.378-.885 12.512 3.382-.441.474-6.87 4.899 6.177 2.844-.379.885-12.512-3.35.441-.474 6.84zm17.383-6.587c-.6-.724-1.39-1.197-2.37-1.512-.98-.284-2.086-.347-3.35-.19l-5.31.694-.885 12.512 6.258-.82c1.485-.188 2.781-.661 3.856-1.386a6.466 6.466 0 002.37-2.837c.506-1.166.664-2.426.474-3.845a4.845 4.845 0 00-1.043-2.616zm-2.591 5.484c-.222.662-.633 1.198-1.202 1.64-.569.44-1.264.693-2.117.819l-2.339.315.474-6.87 2.023-.253c.98-.126 1.77 0 2.339.378s.916.977 1.011 1.797a4.509 4.509 0 01-.19 2.174zM74.448 27.546h-.347l-1.55.126c-.853.032-1.516-.599-1.485-1.45.032-.882.79-1.67 1.675-1.733l3.161-.252c.41-.032.758-.378.758-.788.032-.41-.284-.694-.695-.662h-.063l-1.549.126.064-1.607c.031-.41-.317-.725-.727-.694h-.064c-.41.032-.758.379-.758.788l-.063 1.64h-.064c-1.706.125-3.16 1.638-3.192 3.308-.063 1.576 1.138 2.774 2.718 2.774h.348l1.549-.126c.853-.032 1.517.599 1.485 1.45-.031.85-.79 1.607-1.675 1.67l-3.097.252a.841.841 0 00-.759.757c0 .378.285.661.696.63h.063l1.517-.126-.063 1.513c0 .378.284.662.695.63h.063a.871.871 0 00.759-.756l.063-1.513h.063c1.675-.126 3.097-1.544 3.192-3.183 0-1.576-1.17-2.774-2.718-2.774z"></path>
</svg>