<svg id="67572c611e50d" width="160" height="35" viewBox="0 0 150 33"
    aria-labelledby="67572c611e50d_svg_title" role="img"
    xmlns="http://www.w3.org/2000/svg" fill="none">
    <title id="67572c611e50d_svg_title">Credible</title>
    <path fill="#58BF93"
        d="M89.313 8.492a4.132 4.132 0 004.127-4.127A4.132 4.132 0 0089.313.238a4.132 4.132 0 00-4.127 4.127 4.132 4.132 0 004.126 4.127z">
    </path>
    <path fill="#2856A2"
        d="M133.73 21.905c.08 1.772.609 3.174 1.535 4.206.925 1.032 2.142 1.561 3.677 1.561 1.005 0 1.905-.238 2.672-.688.767-.476 1.27-1.111 1.481-1.931h6.35c-.715 2.407-1.985 4.233-3.784 5.529-1.799 1.296-3.941 1.931-6.455 1.931-7.751 0-11.64-4.233-11.64-12.672 0-1.799.238-3.439.767-4.867.503-1.455 1.244-2.699 2.196-3.73.952-1.032 2.143-1.826 3.519-2.382 1.402-.555 2.989-.82 4.788-.82 3.598 0 6.296 1.138 8.148 3.466 1.852 2.302 2.778 5.767 2.778 10.423H133.73v-.026zM21.481 23.519c-.158 1.349-.555 2.592-1.164 3.677a9.42 9.42 0 01-2.354 2.83c-.96.8-2.053 1.426-3.228 1.852-1.216.45-2.54.662-3.94.662-1.589 0-3.017-.265-4.34-.768a8.811 8.811 0 01-3.386-2.354c-.953-1.058-1.667-2.355-2.196-3.915-.53-1.561-.794-3.387-.794-5.477 0-2.09.265-3.888.794-5.396.53-1.508 1.243-2.752 2.196-3.704.952-.952 2.09-1.667 3.44-2.143 1.35-.476 2.83-.714 4.47-.714 1.508 0 2.91.211 4.127.608 1.243.424 2.328 1.006 3.254 1.8a8.615 8.615 0 012.196 2.856c.53 1.111.846 2.328.952 3.678h-6.164c-.159-1.19-.635-2.143-1.455-2.805-.794-.687-1.8-1.005-2.963-1.005-.66 0-1.27.106-1.852.344-.582.212-1.058.582-1.48 1.111-.425.53-.769 1.217-1.033 2.09-.265.873-.37 1.931-.37 3.201 0 2.566.45 4.445 1.375 5.688.926 1.243 1.958 1.852 3.175 1.852 1.217 0 2.222-.344 3.07-.98.845-.66 1.348-1.64 1.48-2.883h6.19v-.105zm1.561 8.439V8.678h5.794v2.803c.503-.793 1.032-1.402 1.587-1.851.556-.45 1.111-.794 1.693-1.006a6.24 6.24 0 011.773-.45c.605-.074 1.215-.11 1.825-.105h.82v6.296c-.555-.106-1.137-.132-1.693-.132-3.756 0-5.635 1.878-5.635 5.635v12.116h-6.164v-.026zm20.556-10.053c.08 1.772.608 3.174 1.534 4.206.926 1.032 2.143 1.561 3.678 1.561 1.005 0 1.904-.238 2.671-.688.768-.476 1.27-1.111 1.482-1.931h6.35c-.742 2.407-1.985 4.233-3.784 5.529-1.799 1.296-3.942 1.931-6.428 1.931-7.778 0-11.667-4.233-11.667-12.672 0-1.799.264-3.439.767-4.867.503-1.455 1.243-2.699 2.196-3.73.952-1.032 2.143-1.826 3.518-2.382 1.376-.555 2.99-.82 4.79-.82 3.597 0 6.321 1.138 8.173 3.466 1.852 2.302 2.778 5.767 2.778 10.423H43.598v-.026zm9.71-3.89a6.536 6.536 0 00-.45-2.248 4.755 4.755 0 00-1.059-1.614 4.548 4.548 0 00-1.508-.952 5.08 5.08 0 00-1.746-.317c-1.217 0-2.302.45-3.2 1.349-.9.9-1.403 2.143-1.535 3.756h9.497v.027-.001zm24.364 13.943l-.053-2.831c-1.429 2.302-3.57 3.44-6.48 3.44-1.483 0-2.832-.292-4.076-.847-1.243-.582-2.3-1.376-3.174-2.46-.873-1.059-1.587-2.382-2.09-3.916-.503-1.534-.767-3.28-.767-5.265 0-1.772.211-3.386.635-4.84.423-1.456 1.058-2.726 1.878-3.81a8.286 8.286 0 013.016-2.487c1.19-.582 2.54-.873 4.047-.873 2.858 0 5.186 1.217 6.905 3.65V.133h6.085v31.8h-5.926v.026-.001zm-5.106-4.418c1.482 0 2.725-.609 3.704-1.852 1.005-1.217 1.481-2.83 1.481-4.841 0-5.053-1.72-7.567-5.158-7.567-3.545 0-5.29 2.408-5.29 7.196 0 2.09.501 3.783 1.48 5.08.98 1.349 2.222 1.984 3.783 1.984zm13.624 4.418V10.582a7.07 7.07 0 003.07.714 6.982 6.982 0 003.068-.714v21.376H86.19zm8.757 0V.132h6.058v11.561c1.746-2.434 4.048-3.65 6.905-3.65 1.508 0 2.857.29 4.048.872a8.283 8.283 0 013.016 2.487c.82 1.085 1.428 2.328 1.851 3.81.424 1.481.635 3.095.635 4.84 0 1.959-.264 3.705-.767 5.265-.503 1.535-1.19 2.858-2.09 3.916a8.542 8.542 0 01-3.2 2.46c-1.244.582-2.593.847-4.049.847-2.91 0-5.052-1.138-6.481-3.44l-.053 2.831h-5.873v.027zm11.032-4.418c1.534 0 2.804-.662 3.783-1.958.979-1.323 1.455-3.016 1.455-5.08 0-4.788-1.773-7.195-5.291-7.195-3.44 0-5.159 2.513-5.159 7.566 0 1.984.503 3.598 1.482 4.841 1.005 1.217 2.248 1.826 3.73 1.826zm13.545 4.418V.132h6.137v31.8h-6.137v.026zm23.889-13.942a6.54 6.54 0 00-.45-2.249 4.765 4.765 0 00-1.058-1.614 4.545 4.545 0 00-1.508-.952 4.864 4.864 0 00-1.746-.317c-1.217 0-2.302.45-3.201 1.349-.9.9-1.402 2.143-1.535 3.756h9.498v.027z">
    </path>
</svg>