<svg xmlns="http://www.w3.org/2000/svg" width="200" height="60" viewBox="0 0 191 38" fill="none" class="svg">
    <path fill="#008143" fill-rule="evenodd" class="svg__item"
        d="M19.257 33.964c8.123 0 14.707-6.584 14.707-14.707 0-8.123-6.584-14.707-14.707-14.707-8.123 0-14.707 6.584-14.707 14.707 0 8.123 6.584 14.707 14.707 14.707Zm0 3.96c10.31 0 18.667-8.357 18.667-18.667C37.924 8.947 29.567.59 19.257.59 8.947.59.59 8.948.59 19.257c0 10.31 8.358 18.667 18.667 18.667Z"
        clip-rule="evenodd"></path>
    <path fill="#008143" fill-rule="evenodd" class="svg__item"
        d="M15.863 32.833a9.05 9.05 0 1 0 0-18.101 9.05 9.05 0 0 0 0 18.1Zm0 3.96c7.186 0 13.01-5.825 13.01-13.01 0-7.186-5.824-13.011-13.01-13.011-7.185 0-13.01 5.825-13.01 13.01 0 7.186 5.825 13.01 13.01 13.01Z"
        clip-rule="evenodd"></path>
    <path fill="#008143" fill-rule="evenodd" class="svg__item"
        d="M20.389 30.005a3.394 3.394 0 1 0 0-6.788 3.394 3.394 0 0 0 0 6.788Zm0 3.96a7.354 7.354 0 1 0 0-14.708 7.354 7.354 0 0 0 0 14.707Z"
        clip-rule="evenodd"></path>
    <path fill="#858585" class="svg__item"
        d="M47.667 25.898c1.493 0 2.634.367 3.421 1.1.801.733 1.202 1.826 1.202 3.278v6.517h-1.853v-1.426c-.326.503-.795.89-1.405 1.16-.598.259-1.31.388-2.139.388-1.208 0-2.179-.292-2.912-.876-.72-.584-1.079-1.35-1.079-2.3 0-.951.346-1.711 1.038-2.282.693-.584 1.793-.875 3.3-.875h3.095v-.387c0-.842-.245-1.487-.733-1.935-.489-.448-1.208-.672-2.159-.672-.638 0-1.262.109-1.873.326-.611.204-1.127.482-1.548.835l-.815-1.466c.557-.448 1.222-.788 1.996-1.018a8.135 8.135 0 0 1 2.464-.367Zm-.448 9.51c.747 0 1.392-.163 1.935-.489.543-.34.936-.814 1.18-1.425v-1.507h-3.013c-1.656 0-2.484.556-2.484 1.67 0 .543.21.97.63 1.283.422.312 1.005.468 1.752.468ZM66.15 21.683v15.11h-1.874v-1.71a4.234 4.234 0 0 1-1.65 1.364 5.112 5.112 0 0 1-2.2.468c-1.044 0-1.981-.23-2.81-.693a5.051 5.051 0 0 1-1.954-1.934c-.462-.842-.693-1.806-.693-2.892 0-1.086.231-2.043.693-2.871a5.051 5.051 0 0 1 1.955-1.935c.828-.461 1.765-.692 2.81-.692.774 0 1.486.15 2.138.448a4.066 4.066 0 0 1 1.63 1.283v-5.946h1.954Zm-5.56 13.521c.679 0 1.296-.156 1.853-.468a3.445 3.445 0 0 0 1.303-1.344c.312-.584.469-1.25.469-1.996 0-.747-.157-1.405-.469-1.975a3.273 3.273 0 0 0-1.303-1.344 3.722 3.722 0 0 0-1.853-.469c-.693 0-1.317.157-1.874.469a3.45 3.45 0 0 0-1.303 1.344c-.312.57-.468 1.229-.468 1.975 0 .747.156 1.412.468 1.996.326.57.76 1.018 1.303 1.344a3.762 3.762 0 0 0 1.874.468ZM79.399 26l-4.725 10.793H72.68L67.954 26h2.037l3.706 8.654L77.485 26h1.914ZM84.815 25.898c1.494 0 2.634.367 3.422 1.1.8.733 1.201 1.826 1.201 3.278v6.517h-1.853v-1.426c-.326.503-.794.89-1.405 1.16-.598.259-1.31.388-2.138.388-1.209 0-2.18-.292-2.912-.876-.72-.584-1.08-1.35-1.08-2.3 0-.951.347-1.711 1.039-2.282.692-.584 1.792-.875 3.299-.875h3.095v-.387c0-.842-.244-1.487-.733-1.935-.489-.448-1.208-.672-2.159-.672-.638 0-1.262.109-1.873.326-.611.204-1.127.482-1.548.835l-.814-1.466c.556-.448 1.222-.788 1.995-1.018a8.135 8.135 0 0 1 2.464-.367Zm-.448 9.51c.747 0 1.392-.163 1.935-.489.543-.34.937-.814 1.181-1.425v-1.507H84.47c-1.656 0-2.484.556-2.484 1.67 0 .543.21.97.631 1.283.421.312 1.005.468 1.751.468ZM98.819 25.898c1.371 0 2.457.4 3.258 1.201.815.788 1.222 1.949 1.222 3.483v6.21h-1.955v-5.986c0-1.046-.251-1.833-.754-2.363-.502-.529-1.221-.794-2.158-.794-1.059 0-1.894.313-2.505.937-.61.61-.916 1.493-.916 2.647v5.56h-1.955V26h1.873v1.629a3.811 3.811 0 0 1 1.589-1.283c.678-.299 1.445-.448 2.3-.448ZM111.681 36.915c-1.1 0-2.084-.238-2.953-.713a5.254 5.254 0 0 1-2.016-1.955c-.489-.841-.733-1.792-.733-2.85 0-1.06.244-2.003.733-2.831a5.068 5.068 0 0 1 2.016-1.955c.869-.476 1.853-.713 2.953-.713.977 0 1.846.197 2.606.59a4.193 4.193 0 0 1 1.792 1.711l-1.486.957a3.33 3.33 0 0 0-1.263-1.16 3.601 3.601 0 0 0-1.67-.387c-.706 0-1.344.156-1.914.468-.557.312-.998.76-1.324 1.344-.312.57-.468 1.229-.468 1.975 0 .76.156 1.432.468 2.016.326.57.767 1.012 1.324 1.324.57.312 1.208.468 1.914.468.611 0 1.168-.129 1.67-.387a3.33 3.33 0 0 0 1.263-1.16l1.486.936a4.32 4.32 0 0 1-1.792 1.731c-.76.394-1.629.59-2.606.59ZM128.205 31.457c0 .15-.013.346-.04.59h-8.757c.122.951.536 1.718 1.242 2.302.72.57 1.609.855 2.668.855 1.29 0 2.328-.434 3.116-1.303l1.079 1.262a4.716 4.716 0 0 1-1.833 1.304c-.719.299-1.527.448-2.423.448-1.14 0-2.152-.23-3.034-.693a5.147 5.147 0 0 1-2.057-1.975c-.475-.841-.713-1.792-.713-2.85 0-1.046.231-1.99.693-2.831a5.054 5.054 0 0 1 1.934-1.955c.828-.476 1.758-.713 2.79-.713s1.948.238 2.749.713a4.776 4.776 0 0 1 1.894 1.955c.462.841.692 1.805.692 2.891Zm-5.335-3.91c-.937 0-1.724.285-2.362.856-.625.57-.991 1.317-1.1 2.24h6.924c-.109-.91-.482-1.65-1.12-2.22-.625-.584-1.405-.876-2.342-.876Z"></path>
    <path fill="#64C219" class="svg__item"
        d="M82.98 2.004c1.253 0 2.342.211 3.266.634.924.409 1.637 1.003 2.138 1.782.502.765.753 1.67.753 2.712 0 1.043-.251 1.947-.753 2.712-.501.766-1.214 1.36-2.138 1.782-.924.41-2.013.614-3.267.614h-2.415v3.623h-3.92V2.004h6.335Zm-.238 7.147c.805 0 1.412-.171 1.821-.514.41-.357.614-.858.614-1.505 0-.647-.205-1.148-.614-1.505-.409-.356-1.016-.534-1.821-.534h-2.178V9.15h2.178ZM102.175 12.834v3.029H91.048V2.004h10.869v3.03h-6.989V7.37h6.158v2.93h-6.158v2.534h7.247ZM110.408 12.18h-2.138v3.683h-3.92V2.004h6.335c1.254 0 2.343.211 3.267.634.924.409 1.637 1.003 2.138 1.782.502.765.753 1.67.753 2.712 0 1.003-.238 1.88-.713 2.633-.462.74-1.129 1.32-2 1.742l2.99 4.356h-4.197l-2.515-3.682Zm2.475-5.048c0-.647-.205-1.148-.614-1.505-.409-.356-1.016-.534-1.821-.534h-2.178V9.15h2.178c.805 0 1.412-.171 1.821-.514.409-.357.614-.858.614-1.505ZM123.876 16.14c-1.122 0-2.211-.138-3.267-.416-1.056-.277-1.914-.646-2.574-1.108l1.287-2.89c.62.408 1.34.738 2.158.99.818.25 1.624.375 2.415.375 1.505 0 2.257-.376 2.257-1.128 0-.396-.217-.687-.653-.871-.422-.198-1.109-.403-2.059-.614-1.043-.224-1.914-.462-2.613-.713-.7-.264-1.3-.68-1.802-1.247-.501-.568-.752-1.333-.752-2.297 0-.844.231-1.603.693-2.277.462-.686 1.148-1.227 2.059-1.623.924-.396 2.052-.594 3.385-.594.911 0 1.808.106 2.693.317.884.198 1.663.495 2.336.89l-1.208 2.911c-1.32-.713-2.6-1.069-3.841-1.069-.778 0-1.346.119-1.702.356-.357.225-.535.522-.535.891 0 .37.211.647.634.832.422.185 1.102.376 2.039.574 1.056.224 1.927.469 2.613.732.7.251 1.3.66 1.802 1.228.515.554.772 1.313.772 2.277 0 .831-.231 1.584-.693 2.257-.462.673-1.155 1.214-2.079 1.623-.924.396-2.045.594-3.365.594ZM138.813 16.14c-1.465 0-2.785-.31-3.96-.93a7.084 7.084 0 0 1-2.752-2.574c-.66-1.096-.99-2.33-.99-3.702 0-1.373.33-2.607.99-3.703a7.083 7.083 0 0 1 2.752-2.573c1.175-.62 2.495-.93 3.96-.93 1.465-.001 2.778.31 3.94.93 1.174.62 2.092 1.478 2.752 2.573.673 1.096 1.009 2.33 1.009 3.703 0 1.372-.336 2.606-1.009 3.702-.66 1.095-1.578 1.953-2.752 2.574-1.162.62-2.475.93-3.94.93Zm0-3.247a3.71 3.71 0 0 0 1.9-.495 3.576 3.576 0 0 0 1.347-1.386c.33-.607.495-1.3.495-2.078 0-.78-.165-1.465-.495-2.06a3.542 3.542 0 0 0-1.347-1.405 3.71 3.71 0 0 0-1.9-.495c-.7 0-1.333.165-1.901.495a3.54 3.54 0 0 0-1.346 1.406c-.33.594-.495 1.28-.495 2.059 0 .778.165 1.471.495 2.078.33.594.778 1.056 1.346 1.386.568.33 1.201.495 1.901.495ZM161.753 2.004v13.859h-3.227l-6.118-7.385v7.385h-3.841V2.004h3.227l6.118 7.385V2.004h3.841ZM173.804 13.17h-5.861l-1.089 2.693h-3.999l6.118-13.859h3.86l6.138 13.859h-4.079l-1.088-2.692Zm-1.149-2.89-1.782-4.435-1.781 4.435h3.563ZM180.082 2.004h3.92v10.75h6.613v3.109h-10.533V2.004Z"></path>
    <path fill="#008143" class="svg__item"
        d="m56.139 15.863-.02-8.315-4.079 6.85h-1.445l-4.059-6.672v8.137h-3.009V2.004h2.653l5.187 8.613 5.108-8.613h2.633l.04 13.86h-3.01ZM69.088 10.953v4.91h-3.207v-4.95l-5.365-8.909h3.405l3.702 6.158 3.702-6.158h3.148l-5.385 8.95Z"></path>
    <path fill="#D0D0D0" class="svg__item"
        d="M131.061 36.863a.735.735 0 0 1-.538-.226.778.778 0 0 1-.212-.551.73.73 0 0 1 .212-.538.735.735 0 0 1 .538-.226c.207 0 .386.075.537.226.151.142.226.32.226.538a.75.75 0 0 1-.226.551.734.734 0 0 1-.537.226ZM136.834 36.863c-.735 0-1.395-.16-1.98-.48a3.507 3.507 0 0 1-1.357-1.344 3.928 3.928 0 0 1-.495-1.966c0-.726.165-1.376.495-1.951a3.507 3.507 0 0 1 1.357-1.344c.585-.32 1.245-.48 1.98-.48.641 0 1.212.127 1.711.381a2.8 2.8 0 0 1 1.203 1.09l-.75.508a2.291 2.291 0 0 0-.933-.82 2.716 2.716 0 0 0-1.231-.283c-.537 0-1.023.123-1.456.368a2.54 2.54 0 0 0-1.004 1.018c-.236.443-.354.948-.354 1.513 0 .575.118 1.085.354 1.528.245.433.579.773 1.004 1.018.433.236.919.353 1.456.353.443 0 .854-.09 1.231-.268.377-.18.688-.453.933-.82l.75.509c-.293.48-.693.848-1.203 1.103a3.892 3.892 0 0 1-1.711.367ZM144.636 36.863c-.716 0-1.362-.16-1.937-.48a3.612 3.612 0 0 1-1.358-1.358c-.33-.575-.495-1.226-.495-1.952s.165-1.376.495-1.951a3.51 3.51 0 0 1 1.358-1.344c.575-.32 1.221-.48 1.937-.48.717 0 1.362.16 1.937.48.576.321 1.023.769 1.344 1.344.33.575.495 1.225.495 1.951s-.165 1.377-.495 1.952a3.506 3.506 0 0 1-1.344 1.358c-.575.32-1.22.48-1.937.48Zm0-.89c.528 0 .999-.118 1.414-.354.424-.245.754-.59.99-1.032.236-.444.354-.948.354-1.514 0-.565-.118-1.07-.354-1.513a2.459 2.459 0 0 0-.99-1.018 2.726 2.726 0 0 0-1.414-.368 2.8 2.8 0 0 0-1.428.368 2.572 2.572 0 0 0-.99 1.018c-.236.443-.354.948-.354 1.513 0 .566.118 1.07.354 1.514.245.443.575.787.99 1.032.424.236.9.353 1.428.353ZM159.739 29.298c.933 0 1.664.268 2.192.806.537.537.806 1.329.806 2.376v4.313h-1.004v-4.215c0-.773-.189-1.362-.566-1.767-.368-.406-.891-.608-1.57-.608-.773 0-1.381.24-1.824.72-.443.472-.665 1.128-.665 1.967v3.903h-1.004v-4.215c0-.773-.188-1.362-.565-1.767-.368-.406-.896-.608-1.584-.608-.764 0-1.372.24-1.825.72-.443.472-.664 1.128-.664 1.967v3.903h-1.004v-7.439h.961v1.358a2.685 2.685 0 0 1 1.103-1.047c.472-.245 1.014-.367 1.627-.367.622 0 1.159.132 1.612.396.462.264.806.655 1.032 1.173.274-.49.665-.872 1.174-1.145.519-.283 1.108-.424 1.768-.424Z"></path>
</svg>