<svg width="200" height="45" viewBox="0 0 270 25" class="svg" fill="none"
    xmlns="http://www.w3.org/2000/svg">
    <path fill-rule="evenodd" clip-rule="evenodd"
        d="M25.971 1.84378C26.7063 0.694985 27.9762 0 29.3401 0H33.3238C34.1141 0 34.5921 0.873446 34.1661 1.53905L20.3311 23.1562C19.5959 24.305 18.3259 25 16.962 25H12.9783C12.1881 25 11.7101 24.1266 12.1361 23.4609L25.971 1.84378ZM38.0862 3.22662C39.3728 1.21623 41.5952 0 43.9821 0H85.1512C86.8081 0 88.1512 1.34315 88.1512 3V22C88.1512 23.6569 86.8081 25 85.1512 25H29.633C27.2622 25 25.8282 22.3797 27.1062 20.3828L38.0862 3.22662ZM10.8121 10.5C9.46334 10.5 8.2054 11.1797 7.46625 12.3079L0.164954 23.452C-0.270768 24.117 0.206339 25 1.00142 25H4.98937C6.33812 25 7.59606 24.3203 8.33521 23.1921L15.6365 12.048C16.0722 11.383 15.5951 10.5 14.8 10.5H10.8121Z"
        fill="url(#logo-linear)"></path>
    <path class="svg__item-footer"
        d="M44.5427 6.1199V18.9999H41.5435L35.8579 12.1367V18.9999H32.2883V6.1199H35.2875L40.9731 12.9831V6.1199H44.5427Z"
        fill="white"></path>
    <path class="svg__item-footer"
        d="M53.6077 19.2575C52.2461 19.2575 51.0195 18.9692 49.9277 18.3927C48.8483 17.8162 47.9957 17.0188 47.3701 16.0007C46.7568 14.9826 46.4501 13.8356 46.4501 12.5599C46.4501 11.2842 46.7568 10.1372 47.3701 9.1191C47.9957 8.10097 48.8483 7.30364 49.9277 6.7271C51.0195 6.15057 52.2461 5.8623 53.6077 5.8623C54.9693 5.8623 56.1899 6.15057 57.2694 6.7271C58.3611 7.30364 59.2136 8.10097 59.8269 9.1191C60.4525 10.1372 60.7653 11.2842 60.7653 12.5599C60.7653 13.8356 60.4525 14.9826 59.8269 16.0007C59.2136 17.0188 58.3611 17.8162 57.2694 18.3927C56.1899 18.9692 54.9693 19.2575 53.6077 19.2575ZM53.6077 16.2399C54.2579 16.2399 54.8467 16.0866 55.3741 15.7799C55.9016 15.4732 56.3187 15.0439 56.6253 14.4919C56.932 13.9276 57.0854 13.2836 57.0854 12.5599C57.0854 11.8362 56.932 11.1983 56.6253 10.6463C56.3187 10.082 55.9016 9.64657 55.3741 9.3399C54.8467 9.03324 54.2579 8.87991 53.6077 8.87991C52.9576 8.87991 52.3688 9.03324 51.8413 9.3399C51.3139 9.64657 50.8968 10.082 50.5901 10.6463C50.2835 11.1983 50.1301 11.8362 50.1301 12.5599C50.1301 13.2836 50.2835 13.9276 50.5901 14.4919C50.8968 15.0439 51.3139 15.4732 51.8413 15.7799C52.3688 16.0866 52.9576 16.2399 53.6077 16.2399Z"
        fill="white"></path>
    <path class="svg__item-footer"
        d="M82.4275 6.1199L78.2507 18.9999H74.3499L71.8843 11.1615L69.3083 18.9999H65.4075L61.2307 6.1199H64.9843L67.5787 14.3447L70.3019 6.1199H73.6507L76.2451 14.4183L78.9499 6.1199H82.4275Z"
        fill="white"></path>
    <path
        d="M97.3094 6.11997C98.4747 6.11997 99.4867 6.31623 100.345 6.70877C101.204 7.08903 101.866 7.64104 102.333 8.36477C102.799 9.07623 103.032 9.9165 103.032 10.8856C103.032 11.8546 102.799 12.6949 102.333 13.4064C101.866 14.1178 101.204 14.6698 100.345 15.0624C99.4867 15.4426 98.4747 15.6328 97.3094 15.6328H95.0646V19H91.4214V6.11997H97.3094ZM97.0886 12.7624C97.8369 12.7624 98.4011 12.6029 98.7814 12.284C99.1617 11.9528 99.3518 11.4866 99.3518 10.8856C99.3518 10.2845 99.1617 9.81837 98.7814 9.48717C98.4011 9.15597 97.8369 8.99037 97.0886 8.99037H95.0646V12.7624H97.0886Z"
        fill="#1949C2"></path>
    <path
        d="M114.818 14.032C114.818 14.0565 114.8 14.3448 114.763 14.8968H107.513C107.661 15.412 107.943 15.8106 108.36 16.0928C108.789 16.3626 109.323 16.4976 109.961 16.4976C110.439 16.4976 110.85 16.4301 111.193 16.2952C111.549 16.1602 111.905 15.9394 112.261 15.6328L114.101 17.5464C113.131 18.6258 111.715 19.1656 109.85 19.1656C108.685 19.1656 107.661 18.9448 106.777 18.5032C105.894 18.0616 105.207 17.4482 104.717 16.6632C104.238 15.8781 103.999 14.9888 103.999 13.9952C103.999 13.0138 104.232 12.1368 104.698 11.364C105.177 10.5789 105.833 9.96557 106.667 9.52397C107.501 9.08237 108.439 8.86157 109.482 8.86157C110.476 8.86157 111.377 9.0701 112.187 9.48717C112.997 9.89197 113.634 10.4869 114.101 11.272C114.579 12.0448 114.818 12.9648 114.818 14.032ZM109.501 11.3456C108.961 11.3456 108.507 11.4989 108.139 11.8056C107.783 12.1122 107.556 12.5293 107.458 13.0568H111.543C111.445 12.5293 111.212 12.1122 110.844 11.8056C110.488 11.4989 110.04 11.3456 109.501 11.3456Z"
        fill="#1949C2"></path>
    <path
        d="M119.76 10.2232C120.116 9.7693 120.576 9.43197 121.14 9.21117C121.717 8.9781 122.373 8.86157 123.109 8.86157V12.008C122.79 11.9712 122.527 11.9528 122.318 11.9528C121.57 11.9528 120.981 12.1552 120.552 12.56C120.135 12.9648 119.926 13.5842 119.926 14.4184V19H116.43V9.02717H119.76V10.2232Z"
        fill="#1949C2"></path>
    <path
        d="M128.195 19.1656C127.361 19.1656 126.539 19.0736 125.729 18.8896C124.919 18.6933 124.269 18.4418 123.779 18.1352L124.827 15.7432C125.281 16.0253 125.821 16.2522 126.447 16.424C127.072 16.5834 127.692 16.6632 128.305 16.6632C128.869 16.6632 129.268 16.608 129.501 16.4976C129.746 16.3749 129.869 16.2032 129.869 15.9824C129.869 15.7616 129.722 15.6082 129.427 15.5224C129.145 15.4242 128.691 15.3322 128.066 15.2464C127.269 15.1482 126.588 15.0194 126.023 14.86C125.471 14.7005 124.993 14.4061 124.588 13.9768C124.183 13.5474 123.981 12.9464 123.981 12.1736C123.981 11.5357 124.171 10.9714 124.551 10.4808C124.932 9.97784 125.484 9.5853 126.207 9.30317C126.943 9.00877 127.821 8.86157 128.839 8.86157C129.562 8.86157 130.28 8.93517 130.991 9.08237C131.703 9.22957 132.298 9.4381 132.776 9.70797L131.727 12.0816C130.844 11.5909 129.887 11.3456 128.857 11.3456C128.305 11.3456 127.9 11.413 127.643 11.548C127.385 11.6706 127.256 11.8362 127.256 12.0448C127.256 12.2778 127.397 12.4434 127.679 12.5416C127.962 12.6274 128.428 12.7194 129.078 12.8176C129.9 12.9402 130.581 13.0813 131.12 13.2408C131.66 13.4002 132.126 13.6946 132.519 14.124C132.923 14.541 133.126 15.1298 133.126 15.8904C133.126 16.516 132.936 17.0802 132.555 17.5832C132.175 18.0738 131.611 18.4602 130.863 18.7424C130.127 19.0245 129.237 19.1656 128.195 19.1656Z"
        fill="#1949C2"></path>
    <path
        d="M139.637 19.1656C138.57 19.1656 137.607 18.9448 136.748 18.5032C135.89 18.0616 135.215 17.4482 134.724 16.6632C134.246 15.8781 134.007 14.9888 134.007 13.9952C134.007 13.0138 134.246 12.1306 134.724 11.3456C135.215 10.5605 135.884 9.9533 136.73 9.52397C137.589 9.08237 138.558 8.86157 139.637 8.86157C140.717 8.86157 141.686 9.08237 142.544 9.52397C143.403 9.9533 144.072 10.5605 144.55 11.3456C145.028 12.1184 145.268 13.0016 145.268 13.9952C145.268 14.9888 145.028 15.8781 144.55 16.6632C144.072 17.4482 143.403 18.0616 142.544 18.5032C141.686 18.9448 140.717 19.1656 139.637 19.1656ZM139.637 16.3872C140.25 16.3872 140.753 16.1786 141.146 15.7616C141.538 15.3322 141.735 14.7434 141.735 13.9952C141.735 13.2592 141.538 12.6826 141.146 12.2656C140.753 11.8485 140.25 11.64 139.637 11.64C139.024 11.64 138.521 11.8485 138.128 12.2656C137.736 12.6826 137.54 13.2592 137.54 13.9952C137.54 14.7434 137.736 15.3322 138.128 15.7616C138.521 16.1786 139.024 16.3872 139.637 16.3872Z"
        fill="#1949C2"></path>
    <path
        d="M153.382 8.86157C154.621 8.86157 155.615 9.22957 156.363 9.96557C157.124 10.7016 157.504 11.8117 157.504 13.296V19H154.008V13.8664C154.008 12.5048 153.462 11.824 152.37 11.824C151.769 11.824 151.285 12.0202 150.917 12.4128C150.561 12.8053 150.383 13.3941 150.383 14.1792V19H146.887V9.02717H150.217V10.1128C150.61 9.70797 151.076 9.4013 151.616 9.19277C152.156 8.97197 152.744 8.86157 153.382 8.86157Z"
        fill="#1949C2"></path>
    <path
        d="M163.949 8.86157C165.605 8.86157 166.869 9.24183 167.74 10.0024C168.61 10.7506 169.046 11.9037 169.046 13.4616V19H165.789V17.712C165.286 18.681 164.305 19.1656 162.845 19.1656C162.072 19.1656 161.404 19.0306 160.84 18.7608C160.275 18.4909 159.846 18.129 159.552 17.6752C159.269 17.209 159.128 16.6816 159.128 16.0928C159.128 15.1482 159.49 14.4184 160.214 13.9032C160.938 13.3757 162.054 13.112 163.563 13.112H165.55C165.489 12.057 164.783 11.5296 163.434 11.5296C162.956 11.5296 162.471 11.6093 161.98 11.7688C161.49 11.916 161.073 12.1245 160.729 12.3944L159.552 10.0208C160.104 9.65277 160.772 9.37064 161.557 9.17437C162.354 8.96584 163.152 8.86157 163.949 8.86157ZM163.82 16.9576C164.225 16.9576 164.581 16.8594 164.888 16.6632C165.194 16.4669 165.415 16.1786 165.55 15.7984V14.9336H164.041C163.023 14.9336 162.514 15.2709 162.514 15.9456C162.514 16.2522 162.63 16.4976 162.864 16.6816C163.097 16.8656 163.416 16.9576 163.82 16.9576Z"
        fill="#1949C2"></path>
    <path d="M171.253 5.34717H174.749V19H171.253V5.34717Z" fill="#1949C2"></path>
    <path d="M178.821 6.12012H182.464V16.1113H188.61V19.0001H178.821V6.12012Z" fill="#565656"></path>
    <path
        d="M194.855 19.1657C193.788 19.1657 192.825 18.9449 191.966 18.5033C191.108 18.0617 190.433 17.4484 189.942 16.6633C189.464 15.8783 189.225 14.9889 189.225 13.9953C189.225 13.014 189.464 12.1308 189.942 11.3457C190.433 10.5607 191.101 9.95345 191.948 9.52412C192.806 9.08252 193.776 8.86172 194.855 8.86172C195.934 8.86172 196.904 9.08252 197.762 9.52412C198.621 9.95345 199.289 10.5607 199.768 11.3457C200.246 12.1185 200.485 13.0017 200.485 13.9953C200.485 14.9889 200.246 15.8783 199.768 16.6633C199.289 17.4484 198.621 18.0617 197.762 18.5033C196.904 18.9449 195.934 19.1657 194.855 19.1657ZM194.855 16.3873C195.468 16.3873 195.971 16.1788 196.364 15.7617C196.756 15.3324 196.953 14.7436 196.953 13.9953C196.953 13.2593 196.756 12.6828 196.364 12.2657C195.971 11.8487 195.468 11.6401 194.855 11.6401C194.242 11.6401 193.739 11.8487 193.346 12.2657C192.954 12.6828 192.757 13.2593 192.757 13.9953C192.757 14.7436 192.954 15.3324 193.346 15.7617C193.739 16.1788 194.242 16.3873 194.855 16.3873Z"
        fill="#565656"></path>
    <path
        d="M206.14 8.86172C207.796 8.86172 209.059 9.24198 209.93 10.0025C210.801 10.7508 211.236 11.9039 211.236 13.4617V19.0001H207.98V17.7121C207.477 18.6812 206.495 19.1657 205.036 19.1657C204.263 19.1657 203.594 19.0308 203.03 18.7609C202.466 18.4911 202.036 18.1292 201.742 17.6753C201.46 17.2092 201.319 16.6817 201.319 16.0929C201.319 15.1484 201.681 14.4185 202.404 13.9033C203.128 13.3759 204.244 13.1121 205.753 13.1121H207.74C207.679 12.0572 206.974 11.5297 205.624 11.5297C205.146 11.5297 204.662 11.6095 204.171 11.7689C203.68 11.9161 203.263 12.1247 202.92 12.3945L201.742 10.0209C202.294 9.65292 202.963 9.37078 203.748 9.17452C204.545 8.96598 205.342 8.86172 206.14 8.86172ZM206.011 16.9577C206.416 16.9577 206.771 16.8596 207.078 16.6633C207.385 16.4671 207.606 16.1788 207.74 15.7985V14.9337H206.232C205.214 14.9337 204.704 15.2711 204.704 15.9457C204.704 16.2524 204.821 16.4977 205.054 16.6817C205.287 16.8657 205.606 16.9577 206.011 16.9577Z"
        fill="#565656"></path>
    <path
        d="M219.938 8.86172C221.177 8.86172 222.171 9.22972 222.919 9.96572C223.68 10.7017 224.06 11.8119 224.06 13.2961V19.0001H220.564V13.8665C220.564 12.5049 220.018 11.8241 218.926 11.8241C218.325 11.8241 217.841 12.0204 217.473 12.4129C217.117 12.8055 216.939 13.3943 216.939 14.1793V19.0001H213.443V9.02732H216.774V10.1129C217.166 9.70812 217.632 9.40145 218.172 9.19292C218.712 8.97212 219.301 8.86172 219.938 8.86172Z"
        fill="#565656"></path>
    <path
        d="M228.284 19.092C228.014 19.092 227.781 18.9939 227.585 18.7976C227.401 18.6014 227.309 18.3622 227.309 18.08C227.309 17.7979 227.401 17.5648 227.585 17.3808C227.781 17.1846 228.014 17.0864 228.284 17.0864C228.554 17.0864 228.787 17.1846 228.983 17.3808C229.179 17.5648 229.277 17.7979 229.277 18.08C229.277 18.3622 229.179 18.6014 228.983 18.7976C228.787 18.9939 228.554 19.092 228.284 19.092Z"
        fill="#C5C5C5"></path>
    <path
        d="M235.796 19.092C234.839 19.092 233.98 18.8835 233.22 18.4664C232.472 18.0494 231.883 17.4667 231.453 16.7184C231.024 15.9579 230.809 15.1054 230.809 14.1608C230.809 13.2163 231.024 12.3699 231.453 11.6216C231.883 10.8734 232.472 10.2907 233.22 9.87365C233.98 9.45658 234.839 9.24805 235.796 9.24805C236.63 9.24805 237.372 9.41365 238.022 9.74485C238.685 10.0638 239.206 10.536 239.586 11.1616L238.611 11.824C238.292 11.3456 237.887 10.9899 237.397 10.7568C236.906 10.5115 236.372 10.3888 235.796 10.3888C235.097 10.3888 234.465 10.5483 233.901 10.8672C233.349 11.1739 232.913 11.6155 232.594 12.192C232.288 12.7686 232.134 13.4248 232.134 14.1608C232.134 14.9091 232.288 15.5715 232.594 16.148C232.913 16.7123 233.349 17.1539 233.901 17.4728C234.465 17.7795 235.097 17.9328 235.796 17.9328C236.372 17.9328 236.906 17.8163 237.397 17.5832C237.887 17.3502 238.292 16.9944 238.611 16.516L239.586 17.1784C239.206 17.804 238.685 18.2824 238.022 18.6136C237.36 18.9326 236.618 19.092 235.796 19.092Z"
        fill="#C5C5C5"></path>
    <path
        d="M245.947 19.092C245.015 19.092 244.174 18.8835 243.426 18.4664C242.678 18.0371 242.089 17.4483 241.66 16.7C241.23 15.9518 241.016 15.1054 241.016 14.1608C241.016 13.2163 241.23 12.3699 241.66 11.6216C242.089 10.8734 242.678 10.2907 243.426 9.87365C244.174 9.45658 245.015 9.24805 245.947 9.24805C246.879 9.24805 247.719 9.45658 248.468 9.87365C249.216 10.2907 249.799 10.8734 250.216 11.6216C250.645 12.3699 250.86 13.2163 250.86 14.1608C250.86 15.1054 250.645 15.9518 250.216 16.7C249.799 17.4483 249.216 18.0371 248.468 18.4664C247.719 18.8835 246.879 19.092 245.947 19.092ZM245.947 17.9328C246.634 17.9328 247.247 17.7795 247.787 17.4728C248.339 17.1539 248.768 16.7062 249.075 16.1296C249.382 15.5531 249.535 14.8968 249.535 14.1608C249.535 13.4248 249.382 12.7686 249.075 12.192C248.768 11.6155 248.339 11.1739 247.787 10.8672C247.247 10.5483 246.634 10.3888 245.947 10.3888C245.26 10.3888 244.641 10.5483 244.089 10.8672C243.549 11.1739 243.119 11.6155 242.801 12.192C242.494 12.7686 242.341 13.4248 242.341 14.1608C242.341 14.8968 242.494 15.5531 242.801 16.1296C243.119 16.7062 243.549 17.1539 244.089 17.4728C244.641 17.7795 245.26 17.9328 245.947 17.9328Z"
        fill="#C5C5C5"></path>
    <path
        d="M265.597 9.24805C266.812 9.24805 267.762 9.59765 268.449 10.2968C269.148 10.996 269.498 12.0264 269.498 13.388V19H268.192V13.5168C268.192 12.511 267.946 11.7443 267.456 11.2168C266.977 10.6894 266.296 10.4256 265.413 10.4256C264.407 10.4256 263.616 10.7384 263.04 11.364C262.463 11.9774 262.175 12.8299 262.175 13.9216V19H260.868V13.5168C260.868 12.511 260.623 11.7443 260.132 11.2168C259.654 10.6894 258.967 10.4256 258.072 10.4256C257.078 10.4256 256.287 10.7384 255.698 11.364C255.122 11.9774 254.833 12.8299 254.833 13.9216V19H253.527V9.32165H254.778V11.088C255.122 10.4992 255.6 10.0454 256.213 9.72645C256.827 9.40751 257.532 9.24805 258.329 9.24805C259.139 9.24805 259.838 9.41978 260.427 9.76325C261.028 10.1067 261.476 10.6158 261.77 11.2904C262.126 10.6526 262.635 10.1558 263.297 9.80005C263.972 9.43205 264.739 9.24805 265.597 9.24805Z"
        fill="#C5C5C5"></path>
    <defs>
        <linearGradient id="logo-linear" x1="44.5458" y1="0" x2="44.5458" y2="25"
            gradientUnits="userSpaceOnUse">
            <stop stop-color="#1948C2"></stop>
            <stop offset="1" stop-color="#3988FF"></stop>
        </linearGradient>
    </defs>
</svg>